<svg id="Layer_1" data-name="Layer 1" xmlns="http://www.w3.org/2000/svg" viewBox="0 0 1920 4000"><defs><style>.cls-1,.cls-10,.cls-11,.cls-12,.cls-13,.cls-14,.cls-15,.cls-16,.cls-17,.cls-2,.cls-3,.cls-4,.cls-5,.cls-6,.cls-7,.cls-8,.cls-9{fill:none;stroke-linecap:round;}.cls-1,.cls-10,.cls-14,.cls-2,.cls-3,.cls-8,.cls-9{stroke:#5995ed;}.cls-1,.cls-11,.cls-12,.cls-14,.cls-15,.cls-16,.cls-2,.cls-4,.cls-5,.cls-7,.cls-8,.cls-9{stroke-miterlimit:10;}.cls-1,.cls-3,.cls-4,.cls-6{stroke-width:2.81px;}.cls-2{stroke-width:2.95px;}.cls-10,.cls-13,.cls-17,.cls-3,.cls-6{stroke-linejoin:round;}.cls-11,.cls-12,.cls-13,.cls-15,.cls-16,.cls-17,.cls-4,.cls-5,.cls-6,.cls-7{stroke:#78f7a9;}.cls-5{stroke-width:2.95px;}.cls-7{stroke-width:2.95px;}.cls-10,.cls-11,.cls-13,.cls-8{stroke-width:2.84px;}.cls-9{stroke-width:2.98px;}.cls-12{stroke-width:2.98px;}.cls-14,.cls-15,.cls-17{stroke-width:2.78px;}.cls-16{stroke-width:2.92px;}</style></defs><path class="cls-1" d="M1131,2152.6c2.32-2.74,6.2.53,8.52-2.21s-1.55-6,.78-8.77,6.2.53,8.52-2.22-1.55-6,.78-8.78,6.2.53,8.53-2.22"/><ellipse class="cls-2" cx="581.34" cy="2369.51" rx="6.45" ry="6.32" transform="translate(-1854.68 2504.82) rotate(-79.39)"/><line class="cls-1" x1="1755.34" y1="1439.19" x2="1760.05" y2="1418.88"/><polygon class="cls-3" points="1267.12 3112.93 1274.02 3122.91 1261.73 3123.79 1267.12 3112.93"/><path class="cls-4" d="M1628.07,1762.35c1.47,3.29-3.16,5.35-1.7,8.64s6.1,1.22,7.57,4.5-3.17,5.36-1.7,8.64,6.1,1.22,7.57,4.51-3.16,5.36-1.69,8.65"/><ellipse class="cls-5" cx="1401.24" cy="3915.16" rx="6.32" ry="6.45" transform="translate(-2733.36 4359.02) rotate(-76.43)"/><line class="cls-4" x1="594.79" y1="3824.49" x2="613.91" y2="3816.2"/><polygon class="cls-6" points="1821.95 2383.03 1831.38 2390.65 1819.85 2394.97 1821.95 2383.03"/><path class="cls-1" d="M122.75,2007.15c3-1.92,5.76,2.36,8.8.44s.32-6.22,3.36-8.14,5.75,2.36,8.79.43.33-6.21,3.37-8.14,5.76,2.36,8.8.43"/><line class="cls-1" x1="1758.8" y1="3031.26" x2="1778.96" y2="3025.95"/><polygon class="cls-3" points="164.85 2886.29 176.73 2888.74 168.46 2897.87 164.85 2886.29"/><path class="cls-4" d="M1867.67,3357c-1.29,3.37-6,1.55-7.31,4.91s3.45,5.18,2.17,8.53-6,1.55-7.32,4.91,3.45,5.18,2.17,8.55-6,1.55-7.32,4.91"/><ellipse class="cls-7" cx="94.94" cy="3669.9" rx="6.32" ry="6.45" transform="translate(-505.48 48.21) rotate(-7.93)"/><line class="cls-4" x1="1463.45" y1="2529.58" x2="1481.84" y2="2539.4"/><polygon class="cls-6" points="246.09 1461.66 257.46 1457.44 255.29 1469.56 246.09 1461.66"/><path class="cls-8" d="M1230.89,853.85c-1.5,3.27-6.16,1.13-7.66,4.4s3.16,5.41,1.66,8.68-6.16,1.13-7.66,4.41,3.16,5.41,1.66,8.68-6.16,1.14-7.66,4.42"/><circle class="cls-9" cx="145.01" cy="862.7" r="6.45"/><line class="cls-8" x1="575.74" y1="765.26" x2="571.47" y2="785.66"/><polygon class="cls-10" points="338.44 217.52 348.26 224.96 336.91 229.74 338.44 217.52"/><path class="cls-11" d="M1775.61,705.36c3.53-.68,4.5,4.35,8,3.67s2.56-5.72,6.1-6.4,4.5,4.35,8,3.67,2.56-5.71,6.1-6.4,4.51,4.36,8,3.67"/><circle class="cls-12" cx="1456.58" cy="478.54" r="6.45"/><line class="cls-11" x1="1069.88" y1="161.91" x2="1068.42" y2="141.12"/><polygon class="cls-13" points="1777.89 283.78 1766.83 289.19 1767.67 276.9 1777.89 283.78"/><path class="cls-14" d="M888.65,3411.8c2.14,2.81-1.86,5.85.27,8.65s6.13-.23,8.27,2.57-1.87,5.85.27,8.65,6.13-.23,8.27,2.58-1.87,5.85.27,8.66"/><path class="cls-15" d="M1106.8,2695.38c-2.78,2.16-5.86-1.81-8.65.35s.29,6.13-2.49,8.28-5.86-1.81-8.65.35.28,6.13-2.5,8.29-5.87-1.81-8.66.35"/><path class="cls-15" d="M1095.3,1509c3.48.54,2.7,5.5,6.18,6s4.26-4.42,7.74-3.88,2.71,5.51,6.19,6.06,4.27-4.42,7.75-3.87,2.71,5.5,6.2,6.05"/><circle class="cls-16" cx="407.72" cy="3206.63" r="6.32"/><polygon class="cls-17" points="63.23 3361.05 72.05 3369.29 60.51 3372.81 63.23 3361.05"/><polygon class="cls-17" points="707.75 1875.83 713.78 1886.28 701.72 1886.28 707.75 1875.83"/></svg>