<svg id="Layer_1" data-name="Layer 1" xmlns="http://www.w3.org/2000/svg" viewBox="0 0 1920 1024"><defs><style>.cls-1,.cls-2,.cls-3,.cls-4,.cls-5,.cls-6{fill:none;stroke-linecap:round;}.cls-1,.cls-2,.cls-3{stroke:#5995ed;}.cls-1,.cls-2,.cls-4,.cls-5{stroke-miterlimit:10;}.cls-1,.cls-3,.cls-4,.cls-6{stroke-width:2.78px;}.cls-2{stroke-width:2.92px;}.cls-3,.cls-6{stroke-linejoin:round;}.cls-4,.cls-5,.cls-6{stroke:#78f7a9;}.cls-5{stroke-width:2.92px;}</style></defs><path class="cls-1" d="M1678.78,106.81c-3.11-1.65-.77-6.09-3.89-7.74s-5.46,2.8-8.57,1.16-.77-6.09-3.89-7.74-5.47,2.8-8.59,1.15-.77-6.09-3.89-7.74"/><circle class="cls-2" cx="263.21" cy="211.9" r="6.32"/><line class="cls-1" x1="81.84" y1="444.9" x2="98.59" y2="456.57"/><polygon class="cls-3" points="883.63 587.31 874.68 595.4 872.15 583.6 883.63 587.31"/><path class="cls-4" d="M1721.84,448.94c1.63-3.13,6.09-.81,7.72-3.93s-2.83-5.45-1.2-8.57,6.08-.81,7.71-3.93-2.82-5.45-1.19-8.58,6.08-.81,7.71-3.94"/><circle class="cls-5" cx="1895.92" cy="845.67" r="6.32"/><line class="cls-4" x1="1202.36" y1="944.12" x2="1215.02" y2="960.15"/><polygon class="cls-6" points="111.87 926.16 117.86 915.69 123.93 926.12 111.87 926.16"/><circle class="cls-2" cx="520.22" cy="878.52" r="6.32"/><polygon class="cls-3" points="1508.84 701.02 1520.52 704.03 1512.07 712.64 1508.84 701.02"/><circle class="cls-5" cx="1278.99" cy="205.84" r="6.32"/><polygon class="cls-6" points="569.14 94.63 566.49 106.4 557.62 98.22 569.14 94.63"/></svg>