<svg id="Layer_1" data-name="Layer 1" xmlns="http://www.w3.org/2000/svg" viewBox="0 0 1024 1024"><defs><style>.cls-1{fill:#78f7a9;}</style></defs><path class="cls-1" d="M411.82,121.35,382,255.17a17.2,17.2,0,0,0,7.69,18.34l37.86,23.6L214.28,490.58a17.26,17.26,0,0,0-5.63,12.17L195.4,896.89a18.27,18.27,0,0,0,26.93,17L576.05,732.08a17.17,17.17,0,0,0,8.76-10.87l74.5-279.6,28.39,17.7a17.19,17.19,0,0,0,19-.54l114.63-80.94a17.21,17.21,0,0,0-.82-28.65L437.72,110.5a17.21,17.21,0,0,0-25.9,10.85Zm-49.5,535.72a42.47,42.47,0,1,1,58.51-13.57A42.52,42.52,0,0,1,362.32,657.07ZM553.53,705,260.1,855.79l106.42-169.5a67.77,67.77,0,1,0-29.71-17.39L231.87,836.06l10.92-324.88L457.91,316,628.77,422.58Zm226.81-340.3-84.13,59.4-278-173.31,21.89-98.22Z"/></svg>