<svg xmlns="http://www.w3.org/2000/svg" xmlns:xlink="http://www.w3.org/1999/xlink" viewBox="0 0 1024 1024"><defs><style>.cls-1{fill:#fff;}.cls-2{fill:url(#linear-gradient);}.cls-3{fill:#78f7a9;}.cls-4{fill:url(#linear-gradient-2);}.cls-5{fill:url(#linear-gradient-3);}.cls-6{fill:url(#linear-gradient-4);}.cls-7{fill:url(#linear-gradient-5);}.cls-8{fill:url(#linear-gradient-6);}</style><linearGradient id="linear-gradient" x1="278.18" y1="150.09" x2="442" y2="313.9" gradientUnits="userSpaceOnUse"><stop offset="0" stop-color="#78f7a9"/><stop offset="0.33" stop-color="#76f4a7"/><stop offset="0.61" stop-color="#71e99f"/><stop offset="0.87" stop-color="#68d893"/><stop offset="1" stop-color="#62cc8b"/></linearGradient><linearGradient id="linear-gradient-2" x1="155.17" y1="80.32" x2="456.1" y2="321.4" gradientUnits="userSpaceOnUse"><stop offset="0" stop-color="#80b3ff"/><stop offset="0.13" stop-color="#6fa6f7"/><stop offset="0.29" stop-color="#629cf1"/><stop offset="0.5" stop-color="#5b97ee"/><stop offset="1" stop-color="#5995ed"/></linearGradient><linearGradient id="linear-gradient-3" x1="748" y1="150.09" x2="911.82" y2="313.9" xlink:href="#linear-gradient"/><linearGradient id="linear-gradient-4" x1="624.98" y1="80.32" x2="925.92" y2="321.4" xlink:href="#linear-gradient-2"/><linearGradient id="linear-gradient-5" x1="106.92" y1="627.86" x2="755.83" y2="946.29" gradientUnits="userSpaceOnUse"><stop offset="0" stop-color="#78f7a9"/><stop offset="0.45" stop-color="#77f5a7"/><stop offset="0.68" stop-color="#73eda2"/><stop offset="0.84" stop-color="#6ce099"/><stop offset="0.99" stop-color="#63ce8c"/><stop offset="1" stop-color="#62cc8b"/></linearGradient><linearGradient id="linear-gradient-6" x1="165.02" y1="358.8" x2="878.18" y2="812.34" gradientUnits="userSpaceOnUse"><stop offset="0" stop-color="#80b3ff"/><stop offset="0.11" stop-color="#76abfa"/><stop offset="0.36" stop-color="#669ff3"/><stop offset="0.64" stop-color="#5c97ee"/><stop offset="1" stop-color="#5995ed"/></linearGradient></defs><g id="Layer_2" data-name="Layer 2"><path class="cls-1" d="M290.93,0A223.09,223.09,0,0,0,135.32,63.09l.05,0A223.22,223.22,0,0,0,36.13,249a79.15,79.15,0,0,0,143,46.89l0,.05a79.33,79.33,0,0,0,46.43-72.11,65,65,0,0,1,10.58-35.62,64.35,64.35,0,0,1,23.8-4.6A65.47,65.47,0,0,1,325.32,249a79.16,79.16,0,0,0,143,46.86v.08a79.31,79.31,0,0,0,46.44-72.11C514.74,100.4,414.34,0,290.93,0Zm149,240.39a17.52,17.52,0,0,1-4.35.6,17.21,17.21,0,0,1-17.19-17.19,127.37,127.37,0,0,0-226.47-80.06l10.25,12.61L188.39,181l-18.33,52.88-19.4,6.48a17,17,0,0,1-21.51-16.59,160.72,160.72,0,0,1,47.3-114.3L160.53,89.93l11,11.7,44.46-14L394.9,70.45l78.32,90.44-1.8,71.33Z"/><path class="cls-2" d="M435.53,272a48.2,48.2,0,0,1-48.2-48.2A96.37,96.37,0,0,0,216,163.24,96.29,96.29,0,0,1,356.33,249a48.17,48.17,0,0,0,91.32,21.44A48.4,48.4,0,0,1,435.53,272Z"/><path class="cls-3" d="M146.34,272a48.2,48.2,0,0,1-48.2-48.2A192.24,192.24,0,0,1,154.5,87.58,192.61,192.61,0,0,0,67.14,249a48.17,48.17,0,0,0,91.32,21.43A48,48,0,0,1,146.34,272Z"/><path class="cls-4" d="M194.54,223.8a96.4,96.4,0,0,1,192.79,0,48.2,48.2,0,0,0,96.4,0C483.73,117.33,397.41,31,290.93,31S98.14,117.33,98.14,223.8a48.2,48.2,0,0,0,96.4,0Z"/><path class="cls-1" d="M760.75,0A223.09,223.09,0,0,0,605.14,63.09l.05,0A223.23,223.23,0,0,0,505.94,249a79.16,79.16,0,0,0,143,46.89l0,.05a79.32,79.32,0,0,0,46.44-72.11A65,65,0,0,1,706,188.18a64.28,64.28,0,0,1,23.8-4.6A65.47,65.47,0,0,1,795.14,249a79.15,79.15,0,0,0,143,46.86v.08a79.31,79.31,0,0,0,46.44-72.11C984.56,100.4,884.16,0,760.75,0Zm149,240.39a17.58,17.58,0,0,1-4.35.6,17.21,17.21,0,0,1-17.19-17.19,127.37,127.37,0,0,0-226.47-80.06l10.25,12.61L658.21,181l-18.33,52.88-19.41,6.48A17,17,0,0,1,599,223.8a160.71,160.71,0,0,1,47.29-114.3L630.35,89.93l11,11.7,44.46-14L864.72,70.45,943,160.89l-1.8,71.33Z"/><path class="cls-5" d="M905.35,272a48.2,48.2,0,0,1-48.2-48.2A96.37,96.37,0,0,0,685.8,163.24,96.29,96.29,0,0,1,826.15,249a48.17,48.17,0,0,0,91.32,21.44A48.46,48.46,0,0,1,905.35,272Z"/><path class="cls-3" d="M616.16,272A48.2,48.2,0,0,1,568,223.8,192.2,192.2,0,0,1,624.32,87.58,192.61,192.61,0,0,0,537,249a48.17,48.17,0,0,0,91.32,21.43A48,48,0,0,1,616.16,272Z"/><path class="cls-6" d="M664.35,223.8a96.4,96.4,0,0,1,192.8,0,48.2,48.2,0,1,0,96.4,0C953.55,117.33,867.23,31,760.75,31S568,117.33,568,223.8a48.2,48.2,0,1,0,96.39,0Z"/><path class="cls-1" d="M491.19,1024C236.27,1024,28.87,816.61,28.87,561.69v-58.3a97.85,97.85,0,0,1,28.81-69.06C75.14,417,83.93,407.4,94.1,396.23l3-3.25.75-1A130.88,130.88,0,0,1,202.13,340.5H863.49c72.58,0,131.64,59.06,131.64,131.64v49.92c0,135.3-59.28,263.49-162.63,351.7l-1.31,1.11L830,876.13A463.86,463.86,0,0,1,491.19,1024Z"/><path class="cls-7" d="M531.87,951.87c-233,0-422.58-189.57-422.58-422.58V481.63a106.22,106.22,0,0,1,20.84-63.3c-1.08,1.17-2.15,2.35-3.21,3.51-9.48,10.41-18.44,20.24-35.46,37.09a74.41,74.41,0,0,0-21.91,52.54v55.66c0,233,189.57,422.58,422.58,422.58A422.25,422.25,0,0,0,803.77,852.5,420.67,420.67,0,0,1,531.87,951.87Z"/><path class="cls-8" d="M531.87,951.87c-233,0-422.58-189.57-422.58-422.58V481.63A107,107,0,0,1,216.13,374.79H847.61A107,107,0,0,1,954.45,481.63v47.66C954.45,762.3,764.88,951.87,531.87,951.87Z"/></g></svg>