<svg xmlns="http://www.w3.org/2000/svg" viewBox="0 0 1024 1024"><defs><style>.cls-1{fill:#78f7a9;}.cls-2{fill:#5995ed;}</style></defs><g id="Layer_2" data-name="Layer 2"><path class="cls-1" d="M487.28,1024C238.72,1024,36.5,821.78,36.5,573.22V513.84a79.38,79.38,0,0,1,23.38-56c18.15-18,27.71-28.46,37.82-39.56,3.06-3.36,6.12-6.72,9.39-10.26a50.42,50.42,0,0,1,74,68.46c-3.1,3.36-6,6.54-8.9,9.72-9.32,10.23-18.93,20.77-34.89,36.8v50.26c0,193,157,349.94,349.94,349.94A349.77,349.77,0,0,0,753,801a50.42,50.42,0,1,1,76.53,65.66A450.49,450.49,0,0,1,487.28,1024Z"/><path class="cls-1" d="M401.47,260.27a52,52,0,0,1-52-52,99.44,99.44,0,1,0-198.87,0,52,52,0,0,1-104,0C46.64,96.13,137.88,4.88,250,4.88S453.45,96.13,453.45,208.29A52,52,0,0,1,401.47,260.27Z"/><path class="cls-1" d="M885.09,260.27a52,52,0,0,1-52-52,99.44,99.44,0,1,0-198.87,0,52,52,0,0,1-104,0c0-112.16,91.24-203.41,203.4-203.41S937.08,96.13,937.08,208.29A52,52,0,0,1,885.09,260.27Z"/><path class="cls-2" d="M987.5,475.47v50.85c0,248.55-202.22,450.79-450.79,450.79S85.92,774.87,85.92,526.32V475.47a114.12,114.12,0,0,1,114-114H873.54A114.1,114.1,0,0,1,987.5,475.47Z"/><path class="cls-2" d="M425.94,241.83a45.21,45.21,0,0,1-45.21-45.2,106.22,106.22,0,1,0-212.43,0,45.21,45.21,0,0,1-90.41,0C77.89,88.21,166.09,0,274.52,0S471.14,88.21,471.14,196.63A45.2,45.2,0,0,1,425.94,241.83Z"/><path class="cls-2" d="M909.57,241.83a45.21,45.21,0,0,1-45.21-45.2,106.22,106.22,0,1,0-212.43,0,45.21,45.21,0,0,1-90.41,0C561.52,88.21,649.73,0,758.15,0S954.77,88.21,954.77,196.63A45.2,45.2,0,0,1,909.57,241.83Z"/></g></svg>