<svg id="Layer_1" data-name="Layer 1" xmlns="http://www.w3.org/2000/svg" viewBox="0 0 400 850"><defs><style>.cls-1,.cls-2,.cls-3,.cls-4{fill:none;stroke-linecap:round;stroke-width:2.78px;}.cls-1,.cls-2{stroke:#5995ed;}.cls-1,.cls-3{stroke-miterlimit:10;}.cls-2,.cls-4{stroke-linejoin:round;}.cls-3,.cls-4{stroke:#78f7a9;}</style></defs><path class="cls-1" d="M320.37,221.38c1.64-3.12,6.09-.77,7.73-3.89s-2.8-5.46-1.15-8.57,6.09-.78,7.73-3.9-2.79-5.46-1.15-8.58,6.09-.78,7.74-3.9"/><line class="cls-1" x1="200.27" y1="495.43" x2="188.6" y2="512.18"/><polygon class="cls-2" points="365.86 633.23 357.77 624.27 369.57 621.75 365.86 633.23"/><path class="cls-3" d="M60.24,796.44c3.12,1.63.8,6.08,3.93,7.71s5.44-2.82,8.57-1.2.8,6.09,3.93,7.72,5.45-2.83,8.58-1.2.81,6.09,3.94,7.72"/><line class="cls-3" x1="128.3" y1="51.68" x2="137.66" y2="69.82"/><polygon class="cls-4" points="36.54 407.73 24.77 405.08 32.95 396.22 36.54 407.73"/></svg>