<svg id="Layer_1" data-name="Layer 1" xmlns="http://www.w3.org/2000/svg" viewBox="0 0 1381 1781"><defs><style>.cls-1,.cls-2,.cls-3,.cls-4,.cls-5,.cls-6{fill:none;stroke-linecap:round;}.cls-1,.cls-2,.cls-3{stroke:#5995ed;}.cls-1,.cls-2,.cls-4,.cls-5{stroke-miterlimit:10;}.cls-1,.cls-3,.cls-4,.cls-6{stroke-width:2.78px;}.cls-2{stroke-width:2.92px;}.cls-3,.cls-6{stroke-linejoin:round;}.cls-4,.cls-5,.cls-6{stroke:#78f7a9;}.cls-5{stroke-width:2.92px;}</style></defs><path class="cls-1" d="M1279.37,1342.88c1.64-3.12,6.09-.77,7.73-3.89s-2.8-5.46-1.15-8.57,6.09-.78,7.73-3.9-2.79-5.46-1.15-8.58,6.09-.78,7.74-3.9"/><circle class="cls-2" cx="1129.27" cy="295.3" r="6.32"/><line class="cls-1" x1="859.27" y1="80.93" x2="847.6" y2="97.68"/><polygon class="cls-3" points="1114.86 1078.72 1106.78 1069.77 1118.57 1067.25 1114.86 1078.72"/><path class="cls-4" d="M810.24,1407.94c3.12,1.63.8,6.08,3.93,7.71s5.44-2.82,8.57-1.2.8,6.09,3.93,7.72,5.45-2.83,8.58-1.2.81,6.09,3.94,7.72"/><circle class="cls-5" cx="114.5" cy="1713.01" r="6.32"/><polygon class="cls-6" points="298.01 114.97 308.48 120.96 298.06 127.03 298.01 114.97"/><line class="cls-4" x1="602.3" y1="320.18" x2="611.66" y2="338.32"/><circle class="cls-2" cx="163.65" cy="486.32" r="6.32"/><polygon class="cls-3" points="120.16 1322.93 117.15 1334.61 108.53 1326.17 120.16 1322.93"/><circle class="cls-5" cx="265.34" cy="970.08" r="6.32"/><polygon class="cls-6" points="1326.54 608.23 1314.77 605.59 1322.95 596.72 1326.54 608.23"/></svg>