<?xml version="1.0" standalone="no"?>
<!DOCTYPE svg PUBLIC "-//W3C//DTD SVG 1.1//EN" "http://www.w3.org/Graphics/SVG/1.1/DTD/svg11.dtd" >
<!--
2021-5-19: Created with FontForge (http://fontforge.org)
-->
<svg xmlns="http://www.w3.org/2000/svg" xmlns:xlink="http://www.w3.org/1999/xlink" version="1.1">
<metadata>
Created by FontForge 20201107 at Wed May 19 22:42:16 2021
 By Lvl_Up
Copyright (c) 2021, Lvl_Up
</metadata>
<defs>
<font id="RoundedBold" horiz-adv-x="751" >
  <font-face 
    font-family="Rounded"
    font-weight="700"
    font-stretch="normal"
    units-per-em="1000"
    panose-1="2 0 8 3 0 0 0 0 0 0"
    ascent="800"
    descent="-200"
    x-height="490.698"
    cap-height="788"
    bbox="-113.64 -315.484 1085.43 901.935"
    underline-thickness="50"
    underline-position="-100"
    unicode-range="U+0020-007A"
  />
    <missing-glyph />
    <glyph glyph-name="A" unicode="A" horiz-adv-x="802" 
d="M679.138 -1.61426c-34.6777 0 -60.2725 16.4873 -74.0176 47.6797l-60.2598 139.929h-294.183l-59.2959 -139.987c-13.7559 -31.1543 -39.3428 -47.6211 -73.9971 -47.6211c-20.5801 0 -38.9268 7.49121 -53.0566 21.6631
c-14.1172 14.0957 -21.5996 31.707 -21.5996 50.8926c0 14.3633 3.03711 27.1582 9.27832 39.0762l272.59 621.991c14.1377 35.0713 40.0938 54.3779 73.127 54.3779c23.8457 0 56.0332 -9.42383 74.1514 -54.2676l272.509 -621.873
c6.23438 -11.9834 9.39453 -25.2002 9.39453 -39.3037c0 -19.1816 -7.47266 -36.793 -21.6084 -50.9307c-14.1719 -14.1533 -32.5059 -21.626 -53.0322 -21.626zM489.903 316.322l-92.0977 215.154l-91.2939 -215.154h183.392z" />
    <glyph glyph-name="B" unicode="B" horiz-adv-x="686" 
d="M142.208 0c-43.4072 0 -78.7207 35.3145 -78.7207 78.7217v630.528c0 43.4229 35.333 78.75 78.7637 78.75h207.073c124.608 0 229.143 -94.5781 237.979 -215.316c4.08887 -55.918 -11.3145 -109.63 -43.6934 -153.933
c61.0947 -45.8096 96.0898 -118.816 92.6738 -196.501c-2.625 -59.4971 -29.0156 -115.396 -74.3096 -157.403c-45.0898 -41.8164 -103.541 -64.8467 -164.583 -64.8467h-255.184zM399.21 142.866c50.0156 0 91.4209 37.0059 94.2598 84.2471
c1.51953 25.1172 -7.09082 48.9697 -24.2412 67.1738c-17.1738 18.2383 -40.4102 28.2803 -65.4375 28.2803h-197.438v-179.701h192.857zM355.224 465.433c25.0264 0 48.2646 10.042 65.4326 28.2754c17.1533 18.2178 25.7646 42.0781 24.2471 67.1846
c-2.83008 47.2441 -44.2334 84.2412 -94.2607 84.2412h-144.29v-179.7h148.871v-0.000976562z" />
    <glyph glyph-name="C" unicode="C" horiz-adv-x="743" 
d="M444.283 0c-65.2793 0 -128.091 16.3398 -186.692 48.5664l-0.307617 0.171875c-57.7588 32.9004 -106.613 80.2314 -145.204 140.679l-0.21875 0.349609c-37.3857 60.8799 -56.3408 129.596 -56.3408 204.24c0 74.667 18.9717 143.396 56.3877 204.275
l0.0673828 0.109375c37.2715 59.9092 85.8535 106.981 144.396 139.91c58.6455 32.9785 121.868 49.6982 187.912 49.6982c73.585 0 138.681 -18.7754 193.479 -55.8018l0.0810547 -0.0556641c38.4561 -26.2188 57.9551 -53.9746 57.9551 -82.498
c0 -19.9404 -7.36426 -37.5879 -21.2959 -51.0322c-13.7334 -13.2549 -31.3906 -20.2617 -51.0635 -20.2617c-19.8418 0 -40.8633 8.44434 -62.4795 25.0996l-0.294922 0.230469c-30.4014 24.2012 -69.2041 36.4736 -115.329 36.4736
c-61.1592 0 -115.572 -24.0518 -161.728 -71.4863c-46.2939 -47.5898 -69.7676 -106.354 -69.7676 -174.661c0 -69.665 23.4453 -128.753 69.6836 -175.626c46.1582 -46.8047 100.6 -70.5352 161.812 -70.5352c46.1191 0 84.9404 12.2861 115.388 36.5176l0.307617 0.240234
c21.6182 16.6289 42.6152 25.0596 62.4082 25.0596c19.6846 0 37.3477 -7.01562 51.0781 -20.2891c14.1221 -13.6562 21.2812 -30.8213 21.2812 -51.0186c0 -28.5557 -19.5068 -56.3193 -57.9795 -82.5186c-54.8477 -37.0674 -119.938 -55.8369 -193.536 -55.8369z" />
    <glyph glyph-name="D" unicode="D" 
d="M139.654 0c-23.3213 0 -43.2471 8.1123 -59.2275 24.1133c-15.9834 15.9424 -24.1045 35.8789 -24.1045 59.2188v621.335c0 23.2998 8.1084 43.2227 24.1016 59.2158c15.9785 15.999 35.9092 24.1172 59.2305 24.1172h159.065
c117.243 0 213.516 -35.249 286.142 -104.762c74.4141 -68.5 112.138 -165.09 112.138 -287.103c0 -123.388 -37.6963 -221.383 -112.028 -291.254c-72.6279 -69.5928 -168.937 -104.882 -286.252 -104.882h-159.064zM298.719 138.906
c79.2666 0 140.072 21.4248 180.731 63.6797c40.8428 42.4746 61.5547 107.596 61.5547 193.549c0 84.4287 -20.8369 148.411 -61.9316 190.171c-41.0244 41.6611 -101.705 62.7881 -180.354 62.7881h-86.4043v-510.188h86.4043z" />
    <glyph glyph-name="E" unicode="E" horiz-adv-x="620" 
d="M138.84 0c-23.3213 0 -43.2471 8.1123 -59.2266 24.1133c-15.9844 15.9424 -24.1055 35.8789 -24.1055 59.2188v621.335c0 23.2998 8.10938 43.2227 24.1025 59.2158c15.9766 15.999 35.9082 24.1172 59.2295 24.1172h369.393c19.4766 0 37.0039 -7.2334 50.6865 -20.916
c13.6738 -13.6729 20.9023 -30.8252 20.9023 -49.6006c0 -19.7529 -7.03711 -36.8076 -20.915 -50.6865c-13.8711 -13.8701 -30.9199 -20.9023 -50.6738 -20.9023h-296.732v-181.368h197.441c18.5957 0 35.6484 -6.94238 49.3154 -20.0742
c14.082 -13.5996 21.2021 -29.8398 21.2021 -48.3154c0 -19.1846 -7.11426 -35.7812 -21.1426 -49.3301c-13.6592 -13.165 -30.7266 -20.1143 -49.374 -20.1143h-197.442v-184.584h307.404c19.4766 0 37.0039 -7.2334 50.6865 -20.916
c13.6738 -13.6748 20.9014 -30.8252 20.9014 -49.6006c0 -19.7646 -7.03223 -36.8174 -20.9014 -50.6865c-13.8701 -13.8721 -30.9219 -20.9053 -50.6865 -20.9053h-380.064z" />
    <glyph glyph-name="F" unicode="F" horiz-adv-x="624" 
d="M140.042 0c-21.0049 0 -39.5254 7.87012 -55.0459 23.3896c-15.5146 15.5352 -23.376 34.4053 -23.376 56.0957v625.855c0 23.1123 8.04297 42.874 23.9072 58.7383c15.8496 15.8691 35.6201 23.9209 58.752 23.9209h366.41c19.3193 0 36.7041 -7.17383 50.2773 -20.7471
c13.5645 -13.5645 20.7334 -30.5781 20.7334 -49.2012c0 -19.5947 -6.98145 -36.5107 -20.748 -50.2773c-13.7568 -13.7578 -30.668 -20.7334 -50.2627 -20.7334h-294.337v-191.553h237.141c19.1396 0 36.4219 -6.88574 49.9805 -19.9102
c13.9707 -13.4922 21.0303 -29.96 21.0303 -48.9893c0 -19.0205 -7.05566 -35.4795 -20.9727 -48.918c-13.583 -13.0723 -30.877 -19.9668 -50.0391 -19.9668h-237.141v-238.219c0 -21.4521 -7.36523 -40.1719 -21.8916 -55.6426
c-14.6689 -15.6016 -33.4834 -23.8428 -54.418 -23.8428z" />
    <glyph glyph-name="G" unicode="G" horiz-adv-x="852" 
d="M446.542 0c-101.918 0 -193.6 37.7881 -272.5 112.315l-0.078125 0.0742188c-78.4912 74.8242 -118.289 169.575 -118.289 281.617c0 74.6357 18.9697 143.363 56.3838 204.271l0.0703125 0.111328c37.2559 59.8984 85.8486 106.973 144.428 139.912
c58.6279 32.9775 121.842 49.6982 187.882 49.6982c73.5791 0 138.679 -18.7744 193.49 -55.7998l0.0839844 -0.0576172c38.4473 -26.2129 57.9414 -53.9688 57.9414 -82.498c0 -19.9404 -7.36426 -37.5879 -21.2959 -51.0322
c-13.707 -13.25 -31.3652 -20.2617 -51.0498 -20.2617c-19.8428 0 -40.8643 8.44434 -62.4805 25.0996l-0.291016 0.228516c-30.416 24.2031 -69.2236 36.4766 -115.347 36.4766c-61.1631 0 -115.57 -24.0518 -161.712 -71.4844
c-46.3057 -47.6016 -69.7842 -106.367 -69.7842 -174.663c0 -69.6504 23.4463 -128.741 69.6846 -175.628c46.1572 -46.8027 100.952 -70.5342 162.862 -70.5342c49.5967 0 94.043 15.4482 132.106 45.9121c31.8965 25.5098 52.4795 59.2979 61.375 100.647h-125.383
c-18.8535 0 -35.874 6.56543 -49.2197 18.9873c-13.9395 12.8945 -21.0361 29.1035 -21.0361 48.1289c0 18.9902 7.08594 35.1953 21.0625 48.165c13.3643 12.3984 30.374 18.9502 49.1943 18.9502h199.079c26.3408 0 47.0088 -8.75488 61.4307 -26.0234
c13.7803 -16.5605 19.8984 -38.124 18.2139 -64.1289c-4.44922 -103.431 -40.4404 -186.983 -106.975 -248.333c-65.001 -59.8252 -145.691 -90.1514 -239.848 -90.1514z" />
    <glyph glyph-name="H" unicode="H" 
d="M610.617 0c-21.4375 0 -40.6543 7.9082 -55.5732 22.8682c-15.1455 15.1035 -22.8486 33.8105 -22.8486 55.5537v239.268h-314.391v-239.268c0 -21.5615 -7.42578 -40.1777 -22.0703 -55.332c-14.6865 -15.1201 -33.4287 -23.0898 -54.2393 -23.0898
c-21.7432 0 -40.4404 7.69434 -55.5732 22.8682c-15.1465 15.1045 -22.8496 33.8115 -22.8496 55.5537v631.143c0 21.3945 7.90332 40.6074 22.8574 55.5625c15.1299 15.1699 33.832 22.873 55.5654 22.873c20.7715 0 39.5049 -7.9707 54.1719 -23.0508
c14.499 -14.9893 22.1377 -34.124 22.1377 -55.3857v-253.027h314.39v253.028c0 21.3945 7.90332 40.6074 22.8584 55.5625c14.9395 14.96 34.1572 22.873 55.5645 22.873c20.834 0 39.583 -7.98828 54.2217 -23.1016c14.6592 -15.1484 22.0889 -33.7637 22.0889 -55.335
v-631.142c0 -21.625 -7.44531 -40.251 -22.1309 -55.3633c-14.5498 -15.0664 -33.3027 -23.0586 -54.1797 -23.0586z" />
    <glyph glyph-name="I" unicode="I" horiz-adv-x="270" 
d="M135.703 0c-21.5762 0 -40.3447 7.81934 -55.7861 23.2412c-15.4434 15.4629 -23.2617 34.2305 -23.2617 55.8057v629.906c0 21.5762 7.81836 40.3438 23.2393 55.7852c15.4404 15.4385 34.2129 23.2617 55.8086 23.2617c20.708 0 39.5293 -8.1123 54.4277 -23.459
c14.957 -15.4385 22.5342 -34.1348 22.5342 -55.5889v-629.906c0 -21.4326 -7.56738 -40.1211 -22.4912 -55.5459c-14.9385 -15.3828 -33.7637 -23.5 -54.4707 -23.5z" />
    <glyph glyph-name="J" unicode="J" horiz-adv-x="575" 
d="M257.834 0c-70.8916 0 -130.252 18.375 -176.435 54.6162c-29.0508 21.4355 -43.7764 46.3125 -43.7764 73.9473c0 18.2246 6.39453 34.7734 18.4941 47.8555c12.7637 13.7256 29.2275 20.6611 48.9785 20.6611c19.541 0 38.293 -6.17871 55.7354 -18.3633
l0.171875 -0.121094c32.8389 -23.3789 64.7109 -35.2324 94.7314 -35.2324c37.1523 0 64.2432 11.75 82.8193 35.9219c19.7852 25.7451 29.8174 65.3799 29.8174 117.803v415.009c0 20.7021 7.93555 39.3438 22.9512 53.9062
c15.042 14.5947 33.5645 21.9971 55.0527 21.9971c21.4473 0 39.9668 -7.39941 55.0459 -21.9922c15.0205 -14.5469 22.9561 -33.1865 22.9561 -53.9102v-415.01c0 -102.896 -25.5146 -179.05 -75.8389 -226.346c-49.959 -46.9414 -114.12 -70.7422 -190.704 -70.7422z" />
    <glyph glyph-name="K" unicode="K" horiz-adv-x="732" 
d="M621.635 0c-20.585 0 -38.3262 8.25293 -52.7285 24.5273l-262.948 289.831l-100.276 -102.88v-133.685c0 -20.6641 -7.54297 -38.9492 -22.4189 -54.3447c-14.8848 -15.3506 -33.6572 -23.4492 -54.3203 -23.4492c-20.5449 0 -39.2402 7.84473 -54.0625 22.6885
c-15.0293 14.9473 -22.6777 33.5068 -22.6777 55.1064v632.411c0 21.2441 7.84473 40.3076 22.6865 55.1299c14.9883 15.0273 33.1855 22.6641 54.0537 22.6641c20.6729 0 39.4443 -8.10156 54.2881 -23.4316c14.8955 -15.375 22.4502 -33.667 22.4502 -54.3623v-289.162
l334.654 342.281l0.258789 0.249023c16.6816 16.0557 34.8818 24.1973 54.0977 24.1973c8.94531 0 18.0361 -1.81934 27.0176 -5.40723c28.4375 -11.375 44.0938 -34.7646 44.0938 -65.8613c0 -16.6621 -5.05566 -31.7891 -15.0273 -44.96l-0.865234 -1.14355
l-244.633 -252.734l268.958 -299.052c12.5293 -13.5957 18.8828 -29.8018 18.8828 -48.1699c0 -19.583 -7.17773 -36.4443 -21.334 -50.1113c-13.835 -13.3105 -31.166 -20.332 -50.1494 -20.332z" />
    <glyph glyph-name="L" unicode="L" horiz-adv-x="612" 
d="M137.604 0c-23.251 0 -43.0947 8.07715 -58.9785 24.0068c-15.9346 15.8779 -24.0146 35.7246 -24.0146 58.9873v625.199c0 21.7246 7.65234 40.6084 22.7461 56.1279c15.2334 15.7051 34.0742 23.6787 55.9785 23.6787c21.0293 0 39.9238 -8.27441 54.6426 -23.9277
c14.5908 -15.5615 21.9775 -34.3535 21.9775 -55.8789v-565.598h277.457c18.5801 0 35.7666 -7.11914 49.7012 -20.5898c14.3271 -13.834 21.5957 -30.8975 21.5957 -50.708c0 -19.8555 -7.28418 -36.9326 -21.6494 -50.7588
c-13.8877 -13.4238 -31.0684 -20.5391 -49.6484 -20.5391h-349.808z" />
    <glyph glyph-name="M" unicode="M" horiz-adv-x="954" 
d="M811.948 0c-20.7002 0 -39.7305 8.0791 -55.0352 23.3662c-15.5264 15.5439 -23.3867 34.4141 -23.3867 56.1045v344.911l-190.955 -351.554l-0.103516 -0.183594c-19.6221 -34.6602 -47.4199 -41.9355 -67.2842 -41.9355c-30.2002 0 -53.5898 14.7246 -67.6562 42.5869
l-191.733 358.473v-352.298c0 -21.5479 -7.6084 -40.3359 -22.6113 -55.8428c-14.9922 -15.4639 -33.918 -23.6279 -54.748 -23.6279c-21.7002 0 -40.5742 7.86133 -56.0986 23.3662c-15.5264 15.5449 -23.3857 34.4141 -23.3857 56.1045v635.394
c0 21.876 7.06445 39.7676 21 53.1816c13.5391 13.0498 31.2041 19.9541 51.0732 19.9541c30.5186 0 56.1885 -15.9668 76.2959 -47.457l0.419922 -0.657227l267.444 -486.174l267.089 485.53c21.3271 40.291 53.6826 48.7578 77.0869 48.7578
c19.2979 0 36.6787 -7.16992 50.2646 -20.7344c13.5859 -13.6279 20.7461 -31.7344 20.7461 -52.4014v-635.394c0 -21.5479 -7.6084 -40.3359 -22.6123 -55.8428c-14.9922 -15.4639 -34.2852 -23.6279 -55.8096 -23.6279z" />
    <glyph glyph-name="N" unicode="N" horiz-adv-x="766" 
d="M628.267 0c-30.4014 0 -56.1582 14.6221 -74.5264 42.2979l-336.25 454.375v-417.401c0 -21.4795 -7.58398 -40.2178 -22.54 -55.6963c-14.9639 -15.4336 -33.8428 -23.5752 -54.626 -23.5752c-21.3379 0 -40.6836 8.06641 -55.9443 23.3271
c-15.4727 15.4932 -23.3135 34.3115 -23.3135 55.9443v633.683c0 22.4922 7.21582 40.8643 21.4473 54.6035c13.9961 13.5557 31.6826 20.4424 52.5381 20.4424c30.3682 0 56.1221 -14.6182 74.5205 -42.2891l336.258 -454.396v417.414
c0 21.5078 7.58203 40.25 22.5352 55.7061c14.9541 15.4238 33.834 23.5654 54.6162 23.5654c21.4092 0 40.7646 -8.08203 55.9746 -23.3721c15.4365 -15.3955 23.2969 -34.2256 23.2969 -55.8994v-633.684c0 -22.4814 -7.22559 -40.8594 -21.4775 -54.6182
c-13.8457 -13.3633 -32.002 -20.4268 -52.5088 -20.4268z" />
    <glyph glyph-name="O" unicode="O" horiz-adv-x="869" 
d="M432.674 0c-102.022 0 -192.714 37.8506 -269.555 112.501c-77.0264 74.8301 -116.082 169.542 -116.082 281.507c0 111.954 39.0557 206.662 116.082 281.492c76.8408 74.6494 167.532 112.5 269.555 112.5c101.285 0 191.618 -37.8408 268.479 -112.463
c77.7188 -74.833 117.131 -169.557 117.131 -281.53c0 -111.975 -39.4111 -206.701 -117.129 -281.542c-76.8525 -74.6221 -167.187 -112.465 -268.48 -112.465zM271.905 216.3c45.4502 -45.4229 99.54 -68.4551 160.768 -68.4551
c61.8594 0 115.551 22.9854 159.582 68.3164l0.241211 0.244141c44.7773 44.7764 67.4805 104.53 67.4805 177.601c0 73.0352 -22.7148 132.795 -67.5137 177.619l-0.234375 0.237305c-44.0273 45.3135 -97.71 68.29 -159.556 68.29
c-61.2246 0 -115.302 -23.0146 -160.738 -68.4102c-44.1689 -45.5518 -66.5645 -105.352 -66.5645 -177.737c0 -72.4268 22.3848 -132.214 66.5352 -177.705z" />
    <glyph glyph-name="P" unicode="P" horiz-adv-x="676" 
d="M137.085 0c-21.3955 0 -40.6094 7.9043 -55.5635 22.8594c-15.1611 15.1211 -22.8594 33.8213 -22.8594 55.5635v626.918c0 23.1113 8.04297 42.873 23.9072 58.7373c15.8496 15.8701 35.6211 23.9219 58.7529 23.9219h193.791
c85.2021 0 155.624 -24.1611 209.311 -71.8135l0.124023 -0.110352c26.9395 -24.249 47.3662 -51.9209 60.7148 -82.248c13.3203 -30.2617 20.0742 -64.2744 20.0742 -101.093c0 -38.1953 -6.73633 -73.0664 -20.0186 -103.644
c-13.3848 -30.8086 -33.8916 -58.3955 -60.9502 -81.9951c-53.0068 -46.9141 -123.411 -70.7041 -209.255 -70.7041h-121.717v-197.972c0 -21.5938 -7.44238 -40.2129 -22.1182 -55.3369c-14.623 -15.0957 -33.3682 -23.084 -54.1934 -23.084zM330.876 415.242
c96.1592 0 142.903 38.4326 142.903 117.494c0 38.3936 -11.7393 66.5049 -35.8867 85.9365c-25.1455 20.2344 -61.1514 30.4941 -107.017 30.4941h-117.479v-233.925h117.479z" />
    <glyph glyph-name="Q" unicode="Q" horiz-adv-x="878" 
d="M690.198 -1.61426c-24.3154 0 -38.9404 11.2363 -47.0996 21.124l-27.2666 28.0225c-54.8701 -30.541 -114.724 -46.0029 -178.171 -46.0029c-101.602 0 -191.93 37.6992 -268.479 112.05c-76.7109 74.5244 -115.605 168.86 -115.605 280.385
c0 111.508 38.8994 205.838 115.619 280.369c76.5322 74.3525 166.857 112.053 268.465 112.053c100.89 0 190.857 -37.6846 267.393 -112.001c77.4307 -74.5322 116.692 -168.881 116.692 -280.421c0 -103.239 -33.8633 -191.97 -100.71 -264.056l18.6816 -19.3086
l0.708984 -0.890625c11.0293 -13.8604 16.6201 -28.8232 16.6201 -44.4746c0 -18.6377 -6.53125 -34.6064 -19.4121 -47.4658c-12.8564 -12.8564 -28.8223 -19.3828 -47.4355 -19.3828zM277.531 216.968c45.2842 -45.2432 99.1582 -68.1826 160.129 -68.1826
c23.0488 0 45.8525 3.58691 68.0889 10.6885l-63.7227 65.3096l-0.19043 0.205078c-12.3242 13.2451 -18.8379 29.0947 -18.8379 45.8359c0 17.5693 6.62305 33.7148 19.1523 46.6904c12.8584 13.3584 28.9141 20.1445 47.6953 20.1445
c20.333 0 36.8203 -7.0498 49.0186 -20.9561l76.0117 -78.624c32.6436 43.6592 49.1807 96.0029 49.1807 155.887c0 72.7539 -22.6182 132.275 -67.2295 176.911l-0.230469 0.234375c-43.8662 45.1348 -97.3398 68.0195 -158.936 68.0195
c-60.9551 0 -114.813 -22.9229 -160.08 -68.1338c-44.0049 -45.3525 -66.3174 -104.913 -66.3174 -177.032c-0.000976563 -72.124 22.2959 -131.675 66.2676 -176.997z" />
    <glyph glyph-name="R" unicode="R" horiz-adv-x="683" 
d="M138.316 0c-21.3857 0 -40.5947 7.9043 -55.5498 22.8594c-15.1699 15.1299 -22.873 33.832 -22.873 55.5635v626.918c0 23.1221 8.05273 42.8877 23.9326 58.748c15.8389 15.8594 35.6045 23.9111 58.7266 23.9111h193.806c85.1855 0 155.606 -24.1611 209.308 -71.8096
l0.129883 -0.116211c26.9375 -24.2539 47.3613 -51.9307 60.707 -82.2578c13.3154 -30.2598 20.0664 -64.2676 20.0664 -101.079c0 -57.9707 -16.3604 -108.768 -48.625 -150.982c-26.623 -34.8789 -61.9346 -61.5752 -105.217 -79.6006l144.623 -176.555
c12.2734 -13.543 18.7559 -30.5674 18.7559 -49.2881c0 -19.917 -7.0957 -37.7734 -20.5195 -51.6396c-13.7549 -14.2471 -31.1094 -21.4814 -51.5547 -21.4814c-22.0781 0 -42.0449 9.78809 -57.7412 28.3105l-0.265625 0.313477l-193.217 244.58h-98.1816v-197.972
c0 -21.6025 -7.43652 -40.2197 -22.1035 -55.3359c-14.623 -15.0986 -33.373 -23.0869 -54.207 -23.0869zM332.121 415.242c96.1592 0 142.903 38.4326 142.903 117.494c0 38.3838 -11.7432 66.4951 -35.9014 85.9375c-25.1455 20.2334 -61.1465 30.4932 -107.002 30.4932
h-117.493v-233.925h117.493z" />
    <glyph glyph-name="S" unicode="S" horiz-adv-x="628" 
d="M303.941 0c-49.6162 0 -96.7568 10.5283 -140.11 31.291c-43.8154 20.9678 -78.6846 50.6787 -103.64 88.3096c-17.2051 23.8857 -25.5713 45.1045 -25.5713 64.8535c0 19.0986 6.19141 35.4707 18.4043 48.6631c12.6064 13.6289 28.998 20.542 48.7109 20.542
c28.6934 0 52.6357 -14.3135 71.1621 -42.542l0.105469 -0.163086c30.5508 -47.4004 73.3809 -70.4414 130.938 -70.4414c36.8408 0 67.3555 8.30078 90.6992 24.6689c21.4141 15.0293 31.8271 36.4141 31.8271 65.3721c0 23.4971 -7.00977 41.0244 -21.4277 53.582
c-17.1094 14.8545 -49.3613 31.8232 -95.8389 50.4141l-56.668 22.0479c-63.7285 25.3359 -112.366 54.7012 -144.563 87.2822c-34.5518 34.9287 -51.3516 77.2197 -51.3516 129.283c0 32.04 6.14355 61.3545 18.2617 87.1309
c12.1299 25.8018 30.6348 48.9014 55.002 68.6572c46.7861 39.1836 106.052 59.0488 176.163 59.0488c45.3281 0 86.0811 -8.30957 121.127 -24.7012c35.3223 -16.5186 66.1377 -41.8154 91.5928 -75.1895c19.0488 -24.0977 28.3076 -45.2471 28.3076 -64.6543
c0 -18.0107 -6.37109 -33.5137 -18.9365 -46.0781c-12.4131 -12.3916 -29.0684 -18.9346 -48.1787 -18.9346c-25.9121 0 -47.416 10.6797 -63.9141 31.7422l-0.231445 0.301758c-15.7197 20.749 -31.8125 35.8633 -47.8311 44.9248
c-15.3857 8.71289 -34.8096 13.127 -57.7422 13.127c-32.1768 0 -57.5732 -7.32129 -75.4834 -21.7588c-16.8496 -13.5986 -25.0459 -31.4834 -25.0459 -54.668c0 -36.0811 28.8223 -65.4141 85.665 -87.1836l51.4014 -19.9141
c81.4805 -31.4727 140.672 -64.1309 175.913 -97.0605c19.9736 -17.6953 35.1387 -38.2188 45.0801 -61.0107c9.9082 -22.7168 14.9326 -48.417 14.9326 -76.3877c0 -35.8027 -7.39648 -68.2598 -21.9824 -96.4697c-14.5684 -28.1768 -36.7676 -53 -65.9863 -73.7852
c-55.6172 -40.0117 -119.808 -60.2998 -190.791 -60.2998z" />
    <glyph glyph-name="T" unicode="T" horiz-adv-x="664" 
d="M327.722 0c-21.0957 0 -39.6807 8.11523 -55.2383 24.1182c-15.3799 15.7988 -23.1836 34.7891 -23.1836 56.4297v565.43h-147.14c-19.6055 0 -36.5205 6.97656 -50.2783 20.7344c-13.7568 13.7568 -20.7324 30.6729 -20.7324 50.2773
c0 19.626 6.97949 36.5459 20.7451 50.291c13.7451 13.7441 30.6611 20.7197 50.2656 20.7197h449c19.3066 0 36.6875 -7.16504 50.2637 -20.7197c13.7754 -13.7959 20.7461 -30.707 20.7461 -50.291c0 -19.3193 -7.16992 -36.7002 -20.7344 -50.2646
c-13.5459 -13.5674 -30.9346 -20.7471 -50.2754 -20.7471h-147.141v-565.43c0 -21.4805 -7.54785 -40.3838 -22.4346 -56.1865c-14.9922 -15.9346 -33.6211 -24.3613 -53.8633 -24.3613z" />
    <glyph glyph-name="U" unicode="U" horiz-adv-x="746" 
d="M367.667 0c-89.7832 0 -164.173 26.5918 -221.103 79.0381c-58.1191 53.5791 -87.584 126.938 -87.584 218.049v415.01c0 20.6006 7.67969 39.167 22.208 53.6953c14.5264 14.5293 33.0947 22.208 53.6934 22.208c21.4678 0 39.9873 -7.39844 55.0439 -21.9893
c15.0234 -14.5703 22.959 -33.2109 22.959 -53.9141v-413.953c0 -51.8428 13.9922 -92.2754 41.5879 -120.179c27.5361 -27.8535 65.6182 -41.9746 113.194 -41.9746c47.5664 0 85.6436 14.1211 113.176 41.9707c27.5996 27.917 41.5928 68.3525 41.5928 120.183v413.953
c0 20.8135 8.19629 39.5215 23.7021 54.1025c15.3857 14.4658 34.0107 21.7998 55.3574 21.7998c20.7266 0 39.1914 -7.76074 53.3975 -22.4443c14.0361 -14.5254 21.4482 -33.0078 21.4482 -53.459v-415.01c0 -90.4023 -29.46 -163.405 -87.5625 -216.984
c-57.6475 -53.1514 -132.04 -80.1016 -221.111 -80.1016z" />
    <glyph glyph-name="V" unicode="V" horiz-adv-x="794" 
d="M394.471 0c-23.4375 0 -55.1387 9.44336 -73.2559 54.375l-272.349 621.491c-6.24805 11.9951 -9.41406 25.2461 -9.41406 39.4023c0 19.2158 7.49609 36.8691 21.6777 51.0518c14.1855 14.1836 32.5693 21.6797 53.168 21.6797
c34.748 0 60.3965 -16.5254 74.1738 -47.79l206.051 -484.606l207.026 484.665c13.7891 31.2266 39.4316 47.7314 74.1533 47.7314c20.5977 0 38.9824 -7.49609 53.166 -21.6777c14.1826 -14.1846 21.6797 -31.8369 21.6797 -51.0527
c0 -14.4072 -3.03809 -27.2285 -9.2832 -39.1553l-272.451 -621.626c-14.1699 -35.1445 -40.5557 -54.4883 -74.3428 -54.4883z" />
    <glyph glyph-name="W" unicode="W" horiz-adv-x="1126" 
d="M805.494 0c-39.124 0 -66.1299 19.2529 -78.127 55.6826l-165.838 449.188l-166.003 -449.585c-13.543 -36.168 -40.8682 -55.2852 -79.0215 -55.2852c-19.9805 0 -36.9023 4.74805 -50.292 14.1123c-13.792 9.64551 -23.5986 23.9111 -29.1494 42.3975l-191.966 621.199
c-5.73438 14.9111 -8.52344 27.1357 -8.52344 37.3506c0 19.4385 7.79004 37.2275 22.5283 51.4453c14.4502 14.042 32.9922 21.4951 53.5625 21.4951c16.4941 0 31.8447 -4.42969 45.627 -13.166c14.6084 -9.25586 24.5107 -22.1836 28.6533 -37.3994l135.823 -467.346
l168.214 468.033l0.158203 0.397461c16.3857 40.8955 46.7451 49.4805 69.3291 49.4805c23.084 0 54.042 -8.6123 70.4395 -49.6426l0.146484 -0.368164l169.197 -468.079l135.811 467.455c4.20996 15.4443 13.8545 28.0449 28.6729 37.457
c13.8232 8.75098 29.1709 13.1777 45.6445 13.1777c20.6543 0 39.0869 -7.5166 53.3086 -21.7373c14.2285 -14.2695 21.7363 -31.9668 21.7363 -51.2031c0 -11.3604 -2.47754 -23.8105 -7.3623 -37.0107l-192.186 -621.947
c-8.32031 -25.5938 -29.0195 -56.1016 -80.3838 -56.1016z" />
    <glyph glyph-name="X" unicode="X" horiz-adv-x="702" 
d="M586.609 0c-26.9551 0 -49.084 11.7549 -64.0137 33.9941l-173.247 246.42l-172.608 -246.857l-0.245117 -0.325195c-16.5732 -22.0508 -37.9219 -33.2314 -63.4551 -33.2314c-20.6699 0 -38.2373 6.61035 -52.2129 19.6445
c-14.3701 13.3535 -21.6729 30.1973 -21.6729 50.0352c0 17.4375 5.15918 34.0654 15.7705 50.8311l0.390625 0.616211l205.931 285.032l-187.347 260.885c-11.6992 14.6396 -17.8799 32.3535 -17.8799 51.2764c0 19.8369 7.30859 36.6846 21.7197 50.0781
c13.9121 12.9922 31.4775 19.6016 52.168 19.6016c25.5635 0 46.9453 -11.2188 63.5508 -33.3457l0.238281 -0.317383l155.646 -222.51l156.319 222.081c14.9697 22.3057 37.1172 34.0918 64.0674 34.0918c20.6523 0 38.2158 -6.61523 52.2012 -19.6621
c14.374 -13.3359 21.6855 -30.1787 21.6855 -50.0186c0 -19.1777 -5.96387 -36.3682 -17.7295 -51.1094l-187.521 -261.086l204.518 -284.46c23.8848 -32.043 19.6152 -60.8076 11.8125 -79.3125c-8.12988 -19.3125 -26.5469 -42.3516 -68.085 -42.3516z" />
    <glyph glyph-name="Y" unicode="Y" horiz-adv-x="685" 
d="M342.993 0c-20.8145 0 -39.0059 7.41211 -54.0703 22.0303c-15.0264 14.5537 -22.9775 33.2236 -22.9775 53.9736v279.562l-220.612 319.495l-0.506836 0.889648c-7.24316 12.7021 -10.916 26.249 -10.916 40.2666c0 19.2412 7.32324 36.7354 21.1787 50.5898
c13.8643 13.8652 31.7246 21.1934 51.6484 21.1934c15.4385 0 38 -5.1377 57.8086 -29.6133l0.639648 -0.791992l177.755 -262.788l176.79 262.754l0.428711 0.561523c15.124 19.8262 35.0039 29.8779 59.0889 29.8779c19.9336 0 37.7979 -7.32812 51.6631 -21.1934
c13.8604 -13.8828 21.1787 -31.3721 21.1787 -50.5898c0 -15.3828 -4.40527 -29.5322 -13.0928 -42.0547l-220.001 -318.597v-279.563c0 -20.6064 -7.68652 -39.1953 -22.2275 -53.7549c-14.5801 -14.5625 -33.1699 -22.248 -53.7754 -22.248z" />
    <glyph glyph-name="Z" unicode="Z" horiz-adv-x="663" 
d="M149.117 0c-40.3574 0 -72.2197 17.4238 -92.1445 50.3877l-0.170898 0.282227l-0.163086 0.286133c-9.64062 16.9844 -13.5498 34.6963 -11.6191 52.6406c1.83398 17.0449 9.05078 34.3564 21.4482 51.4561l366.556 489.771h-295.65
c-19.8193 0 -36.8857 7.05078 -50.7266 20.9551c-13.8213 13.7773 -20.8623 30.8359 -20.8623 50.6328c0 19.7637 7.03223 36.8164 20.9004 50.6865c13.8721 13.8701 30.9258 20.9023 50.6895 20.9023h375.793c41.2461 0 72.8096 -17.5459 91.3018 -50.7412
c13.7383 -23.3398 23.2764 -60.2881 -8.62012 -104.306l-366.6 -489.775h319.149c19.7549 0 36.8086 -7.03711 50.6865 -20.916c13.6777 -13.7012 20.9014 -31.2178 20.9014 -50.6719c0 -19.7646 -7.03223 -36.8174 -20.9014 -50.6865
c-13.8711 -13.8701 -30.9238 -20.9033 -50.6875 -20.9033h-399.28z" />
    <glyph glyph-name="a" unicode="a" horiz-adv-x="592" 
d="M471.799 0c-24.6934 0 -46.1592 14.0957 -56.7695 34.6631c-37.9756 -22.7529 -80.8252 -34.6631 -125.386 -34.6631c-135.645 0 -246 110.355 -246 246s110.355 246 246 246c45.4854 0 89.165 -12.3984 127.706 -36.0654
c3.07031 5.10156 6.86328 9.78906 11.3076 13.915c11.7725 10.9316 27.0938 16.9512 43.1426 16.9512c35.1963 0 63.8311 -28.6348 63.8311 -63.832v-359.138c-0.000976563 -35.1963 -28.6348 -63.8311 -63.832 -63.8311zM289.644 364.337
c-65.251 0 -118.337 -53.0859 -118.337 -118.337c0 -65.252 53.0859 -118.338 118.337 -118.338c65.2441 0 118.323 53.0859 118.323 118.338c0.000976563 65.251 -53.0791 118.337 -118.323 118.337z" />
    <glyph glyph-name="b" unicode="b" horiz-adv-x="601" 
d="M304.718 0.193359c-44.4238 0 -87.1465 12.1338 -125.047 35.3145c-10.7471 -20.9697 -32.2793 -35.3145 -57.0312 -35.3145c-35.4619 0 -64.3115 29.4395 -64.3115 65.6279v656.744c0 36.1865 28.8496 65.627 64.3115 65.627
c35.4619 0 64.3125 -29.4404 64.3125 -65.627v-247.414c36.0547 20.3916 76.1621 31.0303 117.767 31.0303c135.86 0 246.391 -113.492 246.391 -252.995c-0.000976562 -139.502 -110.531 -252.993 -246.392 -252.993zM304.718 374.928
c-64.9365 0 -117.767 -54.6123 -117.767 -121.741c0 -67.1279 52.8301 -121.739 117.767 -121.739c64.9365 0 117.767 54.6123 117.767 121.739c0 67.1289 -52.8301 121.741 -117.767 121.741z" />
    <glyph glyph-name="c" unicode="c" horiz-adv-x="491" 
d="M280.089 -0.121094c-11.0127 0 -22.1768 0.735352 -33.1836 2.1875c-109.84 14.5059 -198.645 105.019 -211.16 215.22c-8.07617 70.9746 13.5322 139.26 60.8457 192.27c46.709 52.3184 113.595 82.3232 183.511 82.3232c51.8945 0 101.563 -16.0381 143.639 -46.3779
c15.2656 -11.0234 24.748 -28.1855 26.0225 -47.0938c1.30469 -19.1631 -5.94043 -37.7588 -19.8799 -51.0059c-12.0625 -11.4492 -27.8047 -17.75 -44.333 -17.75c-13.2393 0 -25.8447 4.06934 -36.4551 11.7686c-20.1855 14.6221 -44.0527 22.3555 -69.0049 22.3555
c-8.77832 0 -17.7041 -0.972656 -26.5312 -2.88965c-44.9629 -9.78809 -80.832 -46.9336 -89.2451 -92.4316c-6.51465 -35.1582 2.64453 -70.8125 25.126 -97.8291c22.5361 -27.1016 55.582 -42.6416 90.6631 -42.6416c24.7783 0 48.4863 7.62207 68.5635 22.041
c10.8994 7.82422 23.7422 11.9609 37.1416 11.9609c16.4678 0 32.1143 -6.25098 44.0596 -17.5996c13.917 -13.2432 21.1445 -31.8203 19.8408 -50.9785c-1.29199 -19.0303 -10.8809 -36.3047 -26.3076 -47.3877c-41.9941 -30.1846 -91.5518 -46.1406 -143.312 -46.1406z
" />
    <glyph glyph-name="d" unicode="d" horiz-adv-x="587" 
d="M466.797 0.193359c-24.752 0 -46.2842 14.3447 -57.0322 35.3145c-37.8994 -23.1816 -80.623 -35.3145 -125.047 -35.3145c-135.859 0 -246.39 113.492 -246.39 252.995c0 139.502 110.53 252.994 246.39 252.994c41.6055 0 81.7119 -10.6387 117.767 -31.0293v247.412
c0 36.1865 28.8496 65.627 64.3125 65.627c35.4619 0 64.3125 -29.4404 64.3125 -65.627v-656.745c-0.000976562 -36.1875 -28.8516 -65.627 -64.3125 -65.627zM284.718 374.928c-64.9365 0 -117.767 -54.6123 -117.767 -121.741
c0 -67.1279 52.8301 -121.739 117.767 -121.739c64.9365 0 117.767 54.6123 117.767 121.739c0 67.1289 -52.8301 121.741 -117.767 121.741z" />
    <glyph glyph-name="e" unicode="e" horiz-adv-x="567" 
d="M283 0c-118.086 0 -219.68 84.1318 -241.567 200.049c-2.94336 15.1523 -4.43262 30.5986 -4.43262 45.9512c0 15.3652 1.49316 30.8184 4.43848 45.9307c21.8535 115.947 123.441 200.069 241.562 200.069c118.117 0 219.709 -84.1299 241.566 -200.043
c2.94434 -15.1582 4.43359 -30.6055 4.43359 -45.957c-0.0341797 -32.1582 -26.2178 -58.3271 -58.3682 -58.3271h-304.015l7.77051 -11.9521c24.0459 -36.9854 64.6494 -59.0664 108.612 -59.0664c54.1543 0 97.8271 5.46191 134.948 32.123
c9.80078 7.03711 21.1826 10.7568 32.9131 10.7568c6.3457 0 12.5752 -1.11035 18.5176 -3.2998c19.8711 -7.34375 33.4365 -24.2744 36.2822 -45.2881c2.86328 -21.0371 -5.70898 -40.9941 -22.9307 -53.3896c-54.5635 -39.2676 -118.029 -57.5566 -199.73 -57.5566z
M283 375.347c-43.9971 0 -84.6084 -22.083 -108.633 -59.0703l-7.76172 -11.9502h232.789l-7.76074 11.9502c-24.0244 36.9873 -64.6357 59.0703 -108.634 59.0703z" />
    <glyph glyph-name="f" unicode="f" horiz-adv-x="419" 
d="M179.484 -0.193359c-17.9775 0 -33.5332 6.43164 -46.2344 19.1133c-12.6953 12.6748 -19.1318 28.2373 -19.1318 46.2529v318.012h-22.0713c-15.8496 0 -29.1182 4.99902 -39.4346 14.8574c-10.4629 10.0342 -15.7549 23.6006 -15.7549 40.3467
c0 16.0605 5.29297 29.2783 15.7305 39.2891c10.3398 9.88184 23.6084 14.8799 39.459 14.8799h22.0713v27.1592c0 34.7266 6.00781 65.1016 17.8555 90.2822c12.0693 25.5537 28.1406 45.083 47.7793 58.0674c18.8662 12.4561 37.8857 21.4932 56.54 26.8662
c18.5332 5.35645 38.0762 8.07422 58.0684 8.07422c47.2979 0 86.96 -11.1758 117.895 -33.2168c27.1387 -16.4512 32.8672 -37.584 32.8672 -52.4746c0 -14.6094 -4.8877 -26.915 -14.5293 -36.5771c-9.69238 -9.6709 -21.999 -14.5596 -36.6055 -14.5596
c-9.7832 0 -23.3643 3.47363 -42.7441 10.9307l-0.333008 0.12793l-0.328125 0.140625c-17.4883 7.51367 -31.5576 11.167 -43.0117 11.167c-21.6016 0 -37.1367 -6.24707 -47.4912 -19.0986c-10.7783 -13.4092 -16.25 -31.5156 -16.25 -53.7979v-23.0918h89.3232
c2.83203 0.25293 4.93945 0.358398 7.09863 0.358398c19.3496 0 34.2588 -9.13281 43.1133 -26.4111c9.53223 -18.6758 9.53125 -37.5811 0.00878906 -56.2148c-9.13672 -17.8457 -24.6846 -27.2715 -44.9688 -27.2715c-1.59082 0 -3.09961 0.0507812 -4.58301 0.152344
l-89.9912 0.0117188v-318.01c0 -17.9775 -6.43066 -33.5332 -19.1123 -46.2334c-12.7441 -12.7041 -27.9521 -19.1318 -45.2344 -19.1318z" />
    <glyph glyph-name="g" unicode="g" horiz-adv-x="611" 
d="M302.808 -251.852c-113.378 0 -214.089 80.1396 -239.469 190.556c-4.30957 18.4766 0.0908203 37.7666 12.0869 52.8672c12.2676 15.4551 30.5986 24.3213 50.2852 24.3213c14.9219 0 28.8008 -5.04883 40.1445 -14.6025
c10.8457 -8.99316 18.708 -21.6143 22.1455 -35.5527c12.9033 -53.0459 60.1074 -90.0537 114.807 -90.0537c65.1758 0 118.198 53.0303 118.198 118.211v36.7139c-36.1641 -20.0938 -76.4473 -30.5801 -118.239 -30.5801c-135.497 0 -245.731 110.234 -245.731 245.732
c0 135.498 110.234 245.731 245.731 245.731c44.5254 0 87.3467 -11.9082 125.289 -34.6504c3.01562 5.89258 6.94043 11.3291 11.667 16.0479c12.0537 12.0537 28.0566 18.6973 45.0498 18.6973c35.1602 0 63.7666 -28.6055 63.7666 -63.7666v-433.927
c0 -72.6729 -31.9834 -141.233 -87.748 -188.104c-44.1338 -37.167 -100.246 -57.6416 -157.983 -57.6416zM302.767 363.957c-65.1738 0 -118.197 -53.0234 -118.197 -118.198c0 -65.1748 53.0225 -118.198 118.197 -118.198c65.167 0 118.185 53.0234 118.185 118.198
c0 65.1748 -53.0176 118.198 -118.185 118.198z" />
    <glyph glyph-name="h" unicode="h" horiz-adv-x="643" 
d="M515.219 0.0439453c-36.1875 0 -65.6279 29.4404 -65.6279 65.6279v175.215c0 68.9424 -51.3809 127.561 -116.974 133.45c-3.91602 0.348633 -7.91406 0.526367 -11.8643 0.526367c-71.0801 0 -128.909 -57.8105 -128.909 -128.867v-180.325
c0 -36.1875 -29.4395 -65.6279 -65.627 -65.6279c-36.1865 0 -65.627 29.4404 -65.627 65.6279v656.746c0 36.1865 29.4404 65.627 65.627 65.627c36.1875 0 65.627 -29.4404 65.627 -65.627v-251.734c39.1621 23.2891 83.0859 35.4492 128.881 35.4492
c7 0 14.2236 -0.298828 21.4678 -0.888672c133.831 -10.999 238.652 -124.873 238.652 -259.246v-180.325c0.000976563 -36.1875 -29.4395 -65.6279 -65.626 -65.6279z" />
    <glyph glyph-name="i" unicode="i" horiz-adv-x="247" 
d="M122.718 -0.193359c-35.0449 0 -63.5547 28.5117 -63.5547 63.5557v363.936c0 35.0439 28.5107 63.5547 63.5547 63.5547c35.0439 0 63.5557 -28.5107 63.5557 -63.5547v-363.936c0 -35.0439 -28.5107 -63.5557 -63.5557 -63.5557zM59.1631 603.007
c0 35.1006 28.4541 63.5547 63.5547 63.5547c35.1006 0 63.5557 -28.4541 63.5557 -63.5547c0 -35.1006 -28.4551 -63.5547 -63.5557 -63.5547c-35.1006 0 -63.5547 28.4541 -63.5547 63.5547z" />
    <glyph glyph-name="j" unicode="j" horiz-adv-x="318" 
d="M136.515 541.279c-34.6328 14.3457 -51.0781 54.0498 -36.7324 88.6816c14.3447 34.6318 54.0488 51.0771 88.6816 36.7324c34.6318 -14.3457 51.0771 -54.0498 36.7314 -88.6816c-14.3447 -34.6318 -54.0488 -51.0781 -88.6807 -36.7324zM3.53125 -204.22
c-25.6211 0 -50.7734 4.25195 -74.7578 12.6367c-18.5518 6.49316 -32.7803 21.0371 -39.0449 39.9072c-6.42773 19.3994 -3.56934 40.2061 7.83887 57.0947c12.0625 17.8506 32.5957 28.9395 53.5879 28.9395c6.90918 0 13.7041 -1.16113 20.1934 -3.45312
c10.2852 -3.62305 21.1162 -5.46191 32.1826 -5.46191c53.373 0 96.7949 43.4219 96.7949 96.7949v404.89c0 35.748 29.083 64.8311 64.8311 64.8311c35.748 0 64.8311 -29.083 64.8311 -64.8311v-404.89c0 -124.87 -101.588 -226.458 -226.457 -226.458z" />
    <glyph glyph-name="k" unicode="k" horiz-adv-x="475" 
d="M414.028 384.463l-142.363 -142.41l135.508 -135.38c11.8457 -11.6748 18.3672 -27.3682 18.3672 -44.2002s-6.52344 -32.5254 -18.3682 -44.2012c-11.7793 -11.75 -27.4326 -18.2217 -44.0889 -18.2217c-16.6816 0 -32.3604 6.49023 -44.1465 18.2764l-134.344 134.108
v-89.9775c0 -34.4404 -28.0166 -62.458 -62.457 -62.458c-34.4395 0 -62.458 28.0186 -62.458 62.458v663.085c0 16.6602 6.50391 32.3379 18.3135 44.1465l0.124023 0.121094c11.9453 11.7305 27.5801 18.1904 44.0205 18.1904c34.4395 0 62.457 -28.0186 62.457 -62.458
v-393.933l141.202 141.2c11.8086 11.8096 27.4873 18.3135 44.1455 18.3135c16.6582 0 32.3369 -6.50391 44.1455 -18.3135c11.835 -11.7334 18.3838 -27.4316 18.3838 -44.1436c0.000976563 -16.7129 -6.5498 -32.4111 -18.4414 -44.2031z" />
    <glyph glyph-name="l" unicode="l" horiz-adv-x="260" 
d="M128.718 0.0439453c-36.083 0 -65.4385 29.3564 -65.4385 65.4395v657.12c0 36.083 29.3555 65.4395 65.4385 65.4395c36.083 0 65.4395 -29.3564 65.4395 -65.4395v-657.121c0 -36.083 -29.3564 -65.4385 -65.4395 -65.4385z" />
    <glyph glyph-name="m" unicode="m" horiz-adv-x="984" 
d="M867.589 0c-34.9141 0 -63.3193 28.4053 -63.3193 63.3193v171.412c0 66.0303 -49.2002 122.161 -112.011 127.788c-3.85254 0.34375 -7.68945 0.517578 -11.3906 0.517578c-68.0361 0 -123.388 -55.3525 -123.388 -123.388v-176.331
c0 -34.9141 -28.4053 -63.3193 -63.3193 -63.3193c-0.151367 0 -0.299805 0.00195312 -0.443359 0.00488281c-0.143555 -0.00390625 -0.291992 -0.00488281 -0.442383 -0.00488281c-34.9141 0 -63.3193 28.4053 -63.3193 63.3193v171.413
c0 66.0293 -49.2012 122.161 -112.011 127.788c-3.85352 0.34375 -7.68945 0.517578 -11.3916 0.517578c-68.0361 0 -123.388 -55.3525 -123.388 -123.388v-176.331c0 -34.9141 -28.4053 -63.3193 -63.3193 -63.3193c-34.915 0 -63.3184 28.4053 -63.3184 63.3193v365.362
c0 34.9141 28.4043 63.3193 63.3184 63.3193c26.3008 0 48.9072 -16.1172 58.46 -38.9941c38.7236 24.0742 82.5049 36.6689 128.22 36.6689c6.76953 0 13.5859 -0.273438 20.2598 -0.8125c64.9375 -5.22559 124.903 -35.9805 167.835 -85.3711
c20.2852 23.3545 44.6523 42.9375 71.4941 57.3291c35.209 18.877 74.8799 28.8545 114.726 28.8545c6.77051 0 13.585 -0.273438 20.2588 -0.8125c128.86 -10.3672 229.807 -119.834 229.807 -249.213v-176.331c0.000976562 -34.9131 -28.4033 -63.3184 -63.3174 -63.3184z
" />
    <glyph glyph-name="n" unicode="n" horiz-adv-x="606" 
d="M489.431 -0.121094c-34.9141 0 -63.3184 28.4053 -63.3184 63.3193v171.412c0 66.0293 -49.2002 122.162 -112.012 127.789c-3.85156 0.342773 -7.68848 0.516602 -11.3906 0.516602c-68.0361 0 -123.388 -55.3516 -123.388 -123.388v-176.331
c0 -34.9141 -28.4053 -63.3193 -63.3193 -63.3193c-34.9141 0 -63.3193 28.4053 -63.3193 63.3193v365.362c0 34.9141 28.4053 63.3193 63.3193 63.3193c26.2998 0 48.9072 -16.1172 58.46 -38.9941c38.7227 24.0742 82.5049 36.6689 128.219 36.6689
c6.77051 0 13.5859 -0.273438 20.2607 -0.8125c128.861 -10.3672 229.808 -119.835 229.808 -249.213v-176.331c0 -34.9131 -28.4053 -63.3184 -63.3193 -63.3184z" />
    <glyph glyph-name="o" unicode="o" horiz-adv-x="560" 
d="M279 0c-135.645 0 -246 110.355 -246 246s110.355 246 246 246s246 -110.355 246 -246s-110.355 -246 -246 -246zM279 363.896c-65.0088 0 -117.896 -52.8887 -117.896 -117.897c0 -65.0078 52.8887 -117.896 117.896 -117.896s117.896 52.8887 117.896 117.896
c0 65.0088 -52.8896 117.897 -117.896 117.897z" />
    <glyph glyph-name="p" unicode="p" horiz-adv-x="569" 
d="M105.578 -273.908c-35.1768 0 -63.7959 28.6191 -63.7959 63.7959v638.408c0 35.1768 28.6191 63.7959 63.7959 63.7959c24.6934 0 46.1543 -14.0996 56.7529 -34.6738c37.9756 22.7607 80.8262 34.6738 125.387 34.6738c135.61 0 245.937 -110.327 245.937 -245.936
c0 -135.61 -110.326 -245.937 -245.937 -245.937c-41.8262 0 -82.1465 10.498 -118.344 30.6084v-240.941c0 -35.1758 -28.6191 -63.7949 -63.7959 -63.7949zM287.718 364.5c-65.2549 0 -118.344 -53.0889 -118.344 -118.345c0 -65.2559 53.0889 -118.345 118.344 -118.345
c65.2549 0 118.344 53.0898 118.344 118.345c0 65.2549 -53.0889 118.345 -118.344 118.345z" />
    <glyph glyph-name="q" unicode="q" horiz-adv-x="587" 
d="M463.139 -274.118c-35.1768 0 -63.7949 28.6191 -63.7949 63.7959v240.941c-36.1953 -20.1113 -76.5176 -30.6094 -118.344 -30.6094c-135.609 0 -245.936 110.326 -245.936 245.937c0 135.608 110.326 245.936 245.936 245.936
c44.5605 0 87.4102 -11.9131 125.387 -34.6738c10.5996 20.5742 32.0596 34.6738 56.752 34.6738c35.1777 0 63.7959 -28.6191 63.7959 -63.7959v-638.408c0.000976563 -35.1768 -28.6172 -63.7959 -63.7959 -63.7959zM281 364.291
c-65.2549 0 -118.344 -53.0889 -118.344 -118.345c0 -65.2559 53.0889 -118.345 118.344 -118.345s118.344 53.0898 118.344 118.345c0 65.2549 -53.0889 118.345 -118.344 118.345z" />
    <glyph glyph-name="r" unicode="r" horiz-adv-x="436" 
d="M117.643 -0.121094c-35.2109 0 -63.8564 28.6396 -63.8564 63.8438v364.313c0 35.2041 28.6396 63.8438 63.8437 63.8438c31.1426 0 57.1484 -22.4131 62.7344 -51.9561c46.542 31.6055 101.269 48.6904 157.516 48.6904l6.12598 -0.0722656
c19.5195 -0.423828 37.4775 -9.64355 49.2695 -25.2949c11.9004 -15.791 15.8359 -35.7979 10.7949 -54.8896c-7.3916 -27.9531 -33.0371 -47.4717 -62.3682 -47.4717l-3.91602 0.0410156c-86.1982 -0.0527344 -156.312 -71.8311 -156.312 -160.051v-137.152
c-0.000976562 -35.2051 -28.6348 -63.8447 -63.8311 -63.8447z" />
    <glyph glyph-name="s" unicode="s" horiz-adv-x="442" 
d="M220.55 -7.27344c-37.4521 0 -71.5928 7.17676 -101.475 21.3271c-30.4609 14.4072 -53.5566 33.6689 -68.6455 57.251c-15.084 20.3545 -22.4189 39.2422 -22.4189 57.7344c0 16.3076 5.21094 30.4902 15.4902 42.1533c11.0625 12.5488 25.8174 18.9092 43.8594 18.9092
c22.6582 0 42.3652 -11.9102 58.5742 -35.4004l0.53125 -0.768555l0.479492 -0.816406c14.4727 -24.5713 38.5508 -36.5215 73.6045 -36.5215c21.1836 0 37.6562 3.67285 48.959 10.917c8.35059 5.35938 11.9141 11.5068 11.9141 20.5518
c0 5.35938 0 21.667 -43.8955 34.0625l-57.958 15.5771c-45.0244 12.6318 -78.1006 30.5947 -101.195 54.9375c-24.2363 25.5459 -36.5254 57.5732 -36.5254 95.1934c0 46.2227 18.5381 84.0059 55.0996 112.3c34.1982 26.2773 76.6455 39.5928 126.186 39.5928
c34.4609 0 66.3682 -6.71777 94.835 -19.9678c29.3594 -13.6748 52.4941 -33.3154 68.7646 -58.377l0.112305 -0.177734c10.5215 -16.5508 15.8467 -31.6211 15.8467 -44.8223c0 -17.3203 -6.09961 -31.6846 -18.126 -42.6973
c-11.4268 -10.4707 -25.873 -15.7803 -42.9385 -15.7803c-22.7314 0 -42.4482 10.9375 -58.6035 32.5146c-14.9521 18.2793 -33.9795 27.167 -58.1611 27.167c-15.2334 0 -27.1885 -3.27148 -35.5312 -9.72461c-6.84473 -5.28027 -9.76172 -11.0078 -9.76172 -19.1572
c0 -5.16016 0 -20.8613 40.4883 -32.3545l53.5059 -14.6553c46.0713 -12.4707 81.7959 -29.9814 106.154 -52.043c26.7227 -24.2568 40.2686 -56.6895 40.2686 -96.4053c0 -51.2783 -20.8848 -91.9053 -62.0713 -120.753
c-37.9727 -26.3916 -84.1826 -39.7666 -137.366 -39.7666z" />
    <glyph glyph-name="t" unicode="t" horiz-adv-x="435" 
d="M267.25 -0.193359c-42.3477 0 -75.3906 11.7627 -98.2109 34.959c-22.7783 23.1387 -34.3311 61.7939 -34.3311 114.89v233.42h-27.2168c-15.8994 0 -29.1816 5.00879 -39.4766 14.8877c-10.4375 10.0107 -15.7314 23.5771 -15.7314 40.3203
c0 16.0645 5.29395 29.2881 15.7354 39.3018c10.3262 9.88867 23.6035 14.8994 39.4727 14.8994h27.2168v67.9189c0 17.3271 6.43555 32.5479 19.1309 45.2412c12.6855 12.6855 27.9023 19.1172 45.2295 19.1172c3.30957 0 6.7373 -0.237305 10.1865 -0.708008
c11.6035 -1.58691 22.8867 -6.70703 31.7842 -14.417c15.5381 -13.4404 23.4229 -30.0098 23.4229 -49.2334v-67.9189h61.9746c2.36816 0.210938 4.32617 0.321289 6.25293 0.355469l0.326172 0.00292969c17.9404 0 34.2227 -9.29688 42.4912 -24.2627
c10.5352 -19.0693 10.9385 -39.2617 1.16895 -58.4004c-9.14648 -17.8486 -24.6992 -27.2695 -44.9834 -27.2695c-1.59766 0 -3.10645 0.0498047 -4.58594 0.150391l-62.6436 0.0117188v-234.438c0 -33.3174 15.7207 -33.3174 24.168 -33.3174
c1.28906 0 5.83105 0.234375 20.1406 2.41016c12.1602 1.83105 15.8418 2.35352 17.6533 2.54883c3.84082 0.549805 6.98535 0.795898 10.1396 0.795898c12.0107 0 22.3799 -3.74121 30.8203 -11.1172c10.707 -9.3623 16.1338 -22.3662 16.1338 -38.6533
c0 -16.0771 -5.96582 -38.5469 -34.3887 -54.2949c-20.6445 -11.415 -48.1875 -17.1992 -81.8799 -17.1992z" />
    <glyph glyph-name="u" unicode="u" horiz-adv-x="599" 
d="M297.034 0c-6.91309 0 -13.8672 0.279297 -20.6689 0.830078c-131.451 10.5752 -234.429 122.245 -234.429 254.225v172.353c0 35.6172 28.9766 64.5928 64.5938 64.5928c35.6172 0 64.5928 -28.9766 64.5928 -64.5928v-167.334
c0 -67.3594 50.1914 -124.62 114.264 -130.361c3.93262 -0.348633 7.84668 -0.527344 11.6211 -0.527344c69.4062 0 125.87 56.4658 125.87 125.87v172.353c0 35.6172 28.9756 64.5928 64.5928 64.5928s64.5938 -28.9766 64.5938 -64.5928v-164.961
c-0.000976563 -144.713 -114.406 -262.446 -255.03 -262.446z" />
    <glyph glyph-name="v" unicode="v" horiz-adv-x="516" 
d="M253.21 0l-0.183594 0.0175781c-0.398438 0.0175781 -0.765625 0.0429688 -1.09668 0.0761719c-3.09668 0.109375 -6.19141 0.455078 -9.44141 1.05273c-1.31934 0.235352 -2.7627 0.554688 -4.46289 0.989258c-2.14746 0.558594 -4.24512 1.22949 -6.46387 2.06348
c-0.799805 0.225586 -2.24023 0.637695 -3.90039 1.37598c-2.29297 1.02148 -4.10156 2.13184 -5.42188 2.94043c-0.28418 0.174805 -0.567383 0.349609 -0.854492 0.518555l-0.169922 0.0917969c-0.525391 0.28418 -1.4043 0.756836 -2.4043 1.40918
c-2.51074 1.62891 -4.64453 3.35059 -6.22559 4.66992l-0.0791016 0.0673828c-0.509766 0.430664 -1.01465 0.864258 -1.5127 1.31055c-7.8877 7.03613 -13.7363 15.4043 -17.3525 24.8457c-0.240234 0.624023 -0.431641 1.20996 -0.583984 1.74121l-153.56 358.22
c-6.9375 15.6807 -7.375 33.1426 -1.22949 49.1836c6.18848 16.1006 18.2627 28.8232 34.0059 35.8408c8.35156 3.70996 17.1719 5.58691 26.2334 5.58691c25.4668 0 48.6123 -15.0332 58.9658 -38.2969l96.5244 -225.143l96.5078 225.098
c10.3574 23.291 33.5137 38.3408 58.9932 38.3408c9.0625 0 17.8818 -1.87598 26.2109 -5.57617c15.7793 -7.03418 27.8496 -19.7627 34.0146 -35.8506c6.15723 -16.0195 5.72266 -33.502 -1.22852 -49.2256l-153.555 -358.156
c-0.149414 -0.517578 -0.34375 -1.12109 -0.594727 -1.77539c-3.61719 -9.44141 -9.47266 -17.8145 -17.4004 -24.8779c-0.419922 -0.376953 -0.84668 -0.743164 -1.27637 -1.10742l-0.160156 -0.134766c-1.61523 -1.35449 -3.79883 -3.12402 -6.38965 -4.79688
c-0.929688 -0.604492 -1.71875 -1.03125 -2.19824 -1.28906l-0.0673828 -0.0361328c-0.290039 -0.173828 -0.547852 -0.333008 -0.804688 -0.490234c-1.40234 -0.861328 -3.3252 -2.04395 -5.70215 -3.10059c-1.6582 -0.741211 -3.12012 -1.15918 -3.93164 -1.38867
c-2.23438 -0.84082 -4.33203 -1.51172 -6.39551 -2.04395c-1.75684 -0.449219 -3.19922 -0.768555 -4.59766 -1.01953c-3.18359 -0.584961 -6.27734 -0.929688 -9.36719 -1.03809c-0.321289 -0.03125 -0.674805 -0.0566406 -1.05859 -0.0742188l-0.150391 -0.0136719
s-0.612305 -0.00488281 -0.720703 -0.00488281h-0.915039z" />
    <glyph glyph-name="w" unicode="w" horiz-adv-x="791" 
d="M553.383 -0.121094c-26.4365 0 -50.3018 16.5615 -59.6035 41.2773l-99.7852 227.863l-99.8838 -228.054c-9.22363 -24.6045 -33.0498 -41.0869 -59.502 -41.0869h-0.635742c-26.6113 0 -50.6279 16.7959 -59.7871 41.8057l-136.455 364.714
c-11.9932 32.9795 5.0625 69.5986 38.0186 81.6309c7.08789 2.56055 14.3994 3.84961 21.7871 3.84961c26.6328 0 50.6523 -16.7939 59.7979 -41.8008l81.6172 -218.125l94.9121 216.718l0.0908203 0.290039c0.472656 1.50293 1.12012 3.56055 2.17676 5.82715
c6.03027 12.9609 16.1475 23.2793 29.2568 29.832c0.386719 0.195312 0.774414 0.380859 1.16504 0.563477l0.447266 0.210938c0.181641 0.0878906 0.367188 0.188477 0.553711 0.28418c1.01465 0.527344 2.54688 1.32422 4.48047 2.02832
c1.34961 0.489258 2.46191 0.756836 3.10449 0.907227c0.511719 0.150391 0.947266 0.260742 1.2334 0.331055c2.32715 0.669922 4.86426 1.34277 7.6748 1.78125c1.85059 0.298828 3.49219 0.398438 4.69727 0.472656
c0.267578 0.0166016 0.868164 0.0566406 0.868164 0.0566406l0.299805 0.0341797c0.835938 0.0986328 2.23633 0.263672 3.91406 0.263672h1.01953l0.117188 -0.0126953c1.33789 -0.0410156 2.45117 -0.171875 3.16309 -0.254883l0.40625 -0.0439453
c0.266602 -0.0205078 0.536133 -0.0361328 0.802734 -0.0527344c1.16992 -0.0732422 2.76465 -0.172852 4.57031 -0.460938c2.97266 -0.460938 5.63184 -1.17383 7.86621 -1.82422c0.349609 -0.0878906 0.686523 -0.178711 1.01758 -0.274414
c0.645508 -0.151367 1.79199 -0.422852 3.15137 -0.916992c1.98633 -0.722656 3.56543 -1.54395 4.61035 -2.08789c0.204102 -0.106445 0.407227 -0.216797 0.617188 -0.316406l0.310547 -0.146484c0.339844 -0.160156 0.677734 -0.321289 1.0127 -0.490234
c13.1621 -6.54688 23.3174 -16.8828 29.3721 -29.8955c1.08984 -2.33984 1.7666 -4.49023 2.26074 -6.06152c0.0263672 -0.0810547 0.0507812 -0.161133 0.0771484 -0.242188l94.8301 -216.523l81.6221 218.149c9.1377 24.9932 33.1523 41.7793 59.7881 41.7793
c7.40723 0 14.7236 -1.29004 21.7441 -3.83496c33.0078 -12.043 50.0752 -48.6445 38.0889 -81.6064l-136.496 -364.78c-9.13867 -24.9922 -33.1465 -41.7773 -59.7734 -41.7773h-0.62207z" />
    <glyph glyph-name="x" unicode="x" horiz-adv-x="475" 
d="M368.151 0c-20.3271 0 -38.9883 9.30762 -51.1992 25.5371l-83.958 113.093l-83.9365 -113.081c-12.2188 -16.2373 -30.8848 -25.5488 -51.21 -25.5488c-13.9727 0 -27.2656 4.44336 -38.4414 12.8496c-13.6562 10.2705 -22.5 25.2471 -24.9053 42.1699
c-2.40039 16.8984 1.92188 33.7285 12.1709 47.4004l106.598 143.579l-106.612 143.583c-21.1455 28.1934 -15.4355 68.3584 12.7451 89.5654c11.1807 8.40918 24.4736 12.8525 38.4463 12.8525c20.3271 0 38.9883 -9.30762 51.1992 -25.5381l83.9473 -113.092
l83.9482 113.081c12.2178 16.2373 30.8838 25.5488 51.208 25.5488c13.9717 0 27.2646 -4.44336 38.4414 -12.8496c28.1895 -21.2139 33.8896 -61.3906 12.7305 -89.5908l-106.593 -143.56l106.609 -143.592c10.2402 -13.665 14.5586 -30.4902 12.1592 -47.3857
c-2.40527 -16.9258 -11.25 -31.9014 -24.9062 -42.1738c-11.1758 -8.40527 -24.4697 -12.8486 -38.4414 -12.8486z" />
    <glyph glyph-name="y" unicode="y" horiz-adv-x="568" 
d="M164.253 -315.484c-9.26465 0 -18.2822 1.91797 -26.7979 5.70215c-16.0938 7.15918 -28.4355 20.1719 -34.7559 36.6465c-6.31934 16.4648 -5.8584 34.3896 1.29883 50.4678l113.944 255.914l-180.011 365.371l-0.143555 0.323242
c-7.19824 16.1904 -7.68164 34.1611 -1.36328 50.6035c6.29492 16.4297 18.6367 29.4434 34.7441 36.624c8.54004 3.79297 17.5557 5.71094 26.8203 5.71094c25.9209 0 49.4854 -15.2188 60.1445 -38.8076l129.599 -263.07l116.976 262.728
c10.583 23.7822 34.252 39.1514 60.2979 39.1514c9.26367 0 18.2803 -1.91797 26.7979 -5.70117c16.0957 -7.16016 28.4365 -20.1729 34.7568 -36.6465c6.31934 -16.4658 5.8584 -34.3906 -1.29883 -50.4688l-300.71 -675.396
c-10.583 -23.7822 -34.252 -39.1514 -60.2988 -39.1514z" />
    <glyph glyph-name="z" unicode="z" horiz-adv-x="514" 
d="M95.3809 -0.121094l-0.308594 0.00976562c-3.74707 0.124023 -6.99219 0.450195 -10.5215 1.05957l-0.263672 0.046875c-10.2383 1.91602 -18.9053 5.53613 -26.4971 11.0664c-13.7422 9.97656 -22.79 24.7295 -25.4521 41.5234
c-2.66406 16.8271 1.37598 33.665 11.377 47.4141l0.585938 0.804688l236.562 261.515h-185.402c-35.1191 0 -63.6895 28.5703 -63.6895 63.6895s28.5703 63.6904 63.6895 63.6904h305.812l12.9141 -0.116211c1.81638 -0.0163452 2.86035 -0.24707 3.94434 -0.383789
l0.587891 -0.0751953l1.2666 -0.12793c1.28711 -0.129883 3.20386 -0.299492 4.36523 -0.586914l1.64941 -0.408203l1.93945 -0.415039s3.72363 -1.14453 5.41895 -1.75293c1.30469 -0.421875 2.38281 -0.779297 3.59961 -1.29688
c2.98047 -1.24512 5.9502 -2.82617 9.31445 -4.95801l2.71387 -1.62207l0.676758 -0.492188c13.7402 -9.97754 22.7754 -24.7354 25.4385 -41.5518c2.66504 -16.8184 -1.36426 -33.6494 -11.3477 -47.3916l-0.589844 -0.810547l-236.521 -261.449h185.482
c35.1191 0 63.6904 -28.5703 63.6904 -63.6895s-28.5713 -63.6904 -63.6904 -63.6904h-316.744v-0.000976562z" />
    <glyph glyph-name="space" unicode=" " horiz-adv-x="300" 
 />
    <glyph glyph-name="exclam" unicode="!" horiz-adv-x="286" 
d="M143.737 0.0185547c-21.1709 0 -39.5195 7.62988 -54.5322 22.6748c-15.0146 14.9824 -22.6465 33.334 -22.6465 54.5049c0 21.4971 7.43945 39.1797 22.7441 54.0576c15.0342 14.6143 33.3486 22.0234 54.4355 22.0234c20.7266 0 38.0479 -7.43262 52.9541 -22.7207
c14.6328 -15.0635 22.0391 -33.0068 22.0391 -53.3604c0 -21.1084 -7.41309 -39.4258 -22.0332 -54.4453c-14.8711 -15.2949 -32.1973 -22.7344 -52.9609 -22.7344zM143.737 224.021c-20.709 0 -37.8291 7.05176 -52.3359 21.5586
c-14.5049 14.4951 -21.5596 31.2598 -21.5596 51.2471v418.51c0 19.9717 7.05566 36.7354 21.5664 51.2471c14.5195 14.5088 31.6348 21.5586 52.3291 21.5586c19.2061 0 35.6094 -7.05078 50.1465 -21.5547c14.5254 -14.5479 21.5703 -31.3008 21.5703 -51.251v-418.511
c0 -19.96 -7.05273 -36.7197 -21.5605 -51.2402c-14.54 -14.5176 -30.9404 -21.5645 -50.1562 -21.5645z" />
    <glyph glyph-name="quotedbl" unicode="&#x22;" horiz-adv-x="410" 
d="M81.6504 497.035c-8.11426 0 -16.0479 1.58887 -23.582 4.72168c-15.1641 6.29688 -26.9648 18.1318 -33.2129 33.3203c-6.26172 15.1631 -6.24023 31.8682 0.0703125 47.0098l69.8691 168.177c9.56055 23.0117 31.8408 37.8789 56.7637 37.8789
c8.11914 0 16.0518 -1.5918 23.5781 -4.73242c15.1074 -6.26758 26.9062 -18.0947 33.1807 -33.2852c6.27051 -15.1816 6.26465 -31.8838 -0.0195312 -47.0303l-69.8848 -168.183c-9.55762 -23.0088 -31.8389 -37.877 -56.7627 -37.877zM245.761 497.035
c-8.1123 0 -16.0479 1.58887 -23.583 4.72168c-15.1631 6.2959 -26.9629 18.1309 -33.2119 33.3203c-6.26172 15.1621 -6.24121 31.8672 0.0712891 47.0098l69.8535 168.176c9.5625 23.0127 31.8428 37.8799 56.7656 37.8799c8.11328 0 16.0479 -1.58887 23.583 -4.72266
c15.1309 -6.28223 26.9238 -18.1113 33.1924 -33.3018c6.26758 -15.1875 6.25195 -31.8916 -0.0429688 -47.0371l-69.8799 -168.17c-9.55859 -23.0078 -31.834 -37.876 -56.748 -37.876z" />
    <glyph glyph-name="numbersign" unicode="#" horiz-adv-x="672" 
d="M429.401 0.0185547c-19.9385 0 -37.042 7.44727 -50.8359 22.1338c-13.833 14.6484 -20.0098 32.2119 -18.3164 52.1592l8.73242 125.14h-99.6748l-9.86523 -135.219c-0.96875 -18.2705 -8.04688 -33.6992 -21.0391 -45.8662
c-13.2324 -12.3545 -28.2617 -18.3486 -45.9727 -18.3486c-19.9375 0 -37.042 7.44727 -50.835 22.1338c-13.833 14.6475 -20.0088 32.2119 -18.3154 52.1592l8.73145 125.14h-28.5859c-16.8906 0 -31.5508 6.08496 -43.5732 18.084
c-12.0117 12.0352 -18.0859 26.6895 -18.0859 43.5898c0 16.958 6.13086 31.4863 18.2188 43.1797c12.0479 11.5684 26.6426 17.4043 43.4404 17.4043h37.8145l10.0879 144.73h-47.9014c-16.9033 0 -31.5645 6.08984 -43.5742 18.0986
c-12.0049 12.0283 -18.085 26.6826 -18.085 43.5742c0 17.0186 6.14746 31.5576 18.2695 43.2139c12.0449 11.5439 26.6338 17.3838 43.3896 17.3838h56.0791l9.86523 135.191c0.951172 18.2686 8.0293 33.708 21.0381 45.8916
c13.2324 12.3564 28.6143 18.3496 47.0498 18.3496c19.8838 0 36.9746 -7.42871 50.7979 -22.0801c13.8682 -14.793 20.0254 -32.3516 18.3545 -52.2441l-8.73242 -125.108h98.5957l9.86523 135.193c0.951172 18.2676 8.02832 33.7061 21.0381 45.8906
c13.2354 12.3564 28.6162 18.3496 47.0498 18.3496c19.8838 0 36.9766 -7.42871 50.7988 -22.0791c13.8672 -14.7949 20.0244 -32.3506 18.3545 -52.2412l-8.7334 -125.112h35.0156c16.8145 0 31.4209 -5.86133 43.4111 -17.4189
c12.1006 -11.6348 18.248 -26.1699 18.248 -43.1787c0 -16.9141 -6.08496 -31.5742 -18.083 -43.5742c-12.0127 -12.0098 -26.6729 -18.0996 -43.5752 -18.0996h-44.2422l-10.0879 -144.73h54.3301c16.7881 0 31.3828 -5.83984 43.3779 -17.3584
c12.1396 -11.6953 18.2812 -26.2305 18.2812 -43.2246c0 -16.9004 -6.0791 -31.5596 -18.0684 -43.5732c-12.0186 -12.0166 -26.6777 -18.1016 -43.5898 -18.1016h-62.5088l-9.87793 -135.192c-0.931641 -18.2822 -8.01074 -33.7266 -21.041 -45.9072
c-13.2715 -12.3467 -28.6445 -18.332 -47.0352 -18.332zM378.209 321.709l10.0879 144.73h-99.6465l-10.0889 -144.73h99.6475z" />
    <glyph glyph-name="percent" unicode="%" horiz-adv-x="586" 
d="M438.398 0.0185547c-30.8652 0 -57.5605 11.0527 -79.3428 32.8486c-21.7773 21.7656 -32.8252 48.4609 -32.8252 79.3311c0 31.416 11.0605 58.123 32.876 79.3809c21.8115 21.7549 48.4883 32.7861 79.292 32.7861c31.3477 0 58.2852 -10.8936 80.0654 -32.377
c21.5186 -21.2236 32.8926 -48.8154 32.8926 -79.79c0 -30.8721 -11.0488 -57.5654 -32.8369 -79.3408c-21.4658 -21.4805 -49.1758 -32.8389 -80.1211 -32.8389zM438.398 135.481c-7.16309 0 -12.8408 -2.19141 -17.8662 -6.89746
c-4.83887 -4.52051 -6.98828 -9.56934 -6.98828 -16.3867c0 -6.9502 2.20215 -12.1729 7.1416 -16.9355c5.03125 -4.87695 10.6465 -7.12793 17.7129 -7.12793c5.96777 0 10.7637 2.13574 15.5479 6.92578c4.74414 4.73828 6.94336 10.1777 6.94336 17.1377
c0 6.92969 -2.08398 12.0361 -6.75586 16.5576c-4.74707 4.58203 -9.75488 6.72656 -15.7354 6.72656zM143.867 14.1934c-14.0684 0 -26.666 5.30078 -37.4453 15.7578c-10.9043 10.5186 -16.4561 23.3672 -16.4561 38.1426c0 10.0439 2.80566 20.0303 8.33691 29.6816
l0.422852 0.737305l305.383 453.303c9.92871 16.3115 25.1709 24.5791 45.3125 24.5791c14.5215 0 27.2363 -5.14941 37.793 -15.3066c10.7061 -10.3662 16.1084 -23.0684 16.1084 -37.8027c0 -10.3447 -3.21484 -20.5654 -9.55469 -30.375l-0.214844 -0.328125
l-304.205 -453.965l-0.339844 -0.457031c-14.7129 -19.8096 -32.6689 -23.9668 -45.1406 -23.9668zM154.1 365.431c-30.4238 0 -57.8574 11.3535 -79.3369 32.832c-21.7852 21.7852 -32.8311 48.4824 -32.8311 79.3477c0 31.4121 11.0605 58.1172 32.8701 79.375
c21.501 21.4541 48.918 32.793 79.2988 32.793c30.9062 0 58.5918 -11.1953 80.0654 -32.376c21.5244 -21.2168 32.9043 -48.8105 32.9043 -79.792c0 -30.8584 -11.0508 -57.5547 -32.8438 -79.3477c-21.4785 -21.4785 -49.1865 -32.832 -80.127 -32.832zM154.1 500.883
c-7.1582 0 -12.8428 -2.19336 -17.8848 -6.9043c-4.81836 -4.50195 -6.96875 -9.5498 -6.96875 -16.3672c0 -6.95312 2.20215 -12.1816 7.13867 -16.9521c5.02734 -4.86133 10.6533 -7.12207 17.7148 -7.12207c5.96387 0 10.7617 2.13867 15.5576 6.93457
c4.73047 4.73145 6.93457 10.1787 6.93457 17.1396c0 6.92969 -2.08301 12.0371 -6.75586 16.5566c-4.74219 4.57129 -9.75293 6.71484 -15.7363 6.71484z" />
    <glyph glyph-name="ampersand" unicode="&#x26;" horiz-adv-x="682" 
d="M297.709 0.0185547c-78.0312 0 -152.686 33.9814 -199.701 90.9004c-60.418 73.0937 -70.5391 179.591 -24.6084 258.975c18.9688 32.7422 46.1641 60.3584 84.709 85.7881c-17.3926 24.2676 -35.0986 52.4482 -47.8848 84.7891
c-22.832 57.667 -21.9365 117.993 2.45801 165.499c21.2578 41.3535 59.752 73.4307 108.399 90.3281c22.6748 7.8623 46.2344 11.8467 70.0352 11.8467c56.3184 0 108.472 -22.3691 143.085 -61.376c41.7988 -47.124 55.9629 -115.705 36.9648 -178.988
c-12.0654 -40.1826 -33.9834 -73.9209 -67.0078 -103.146c-21.6504 -19.1602 -45.4453 -34.0742 -69.0088 -46.9619c36.0527 -46.1582 71.1543 -86.873 106.356 -123.347c4.45898 17.7383 8.78906 38.0049 13.8115 66.0332c4.99414 27.9697 29.2227 48.2803 57.6055 48.2803
c3.54785 0 7.08594 -0.316406 10.5156 -0.942383c31.7305 -5.69336 52.9648 -36.2129 47.2656 -68.0215c-10.7422 -59.9814 -19.3398 -90.0889 -29.4629 -123.213c-1.13965 -3.72852 -2.33691 -7.44238 -3.58496 -11.1201
c25.0283 -20.4316 50.7275 -39.3467 76.5752 -56.3574c13.0605 -8.60449 21.9922 -21.7871 25.1553 -37.126c3.16211 -15.3516 0.164062 -30.9951 -8.43945 -44.0576c-10.8809 -16.5195 -29.1982 -26.3818 -49 -26.3818c-11.4912 0 -22.625 3.33984 -32.1992 9.66016
c-23.7725 15.6592 -47.2969 32.6172 -70.1367 50.5508c-30.3193 -34.8672 -67.4014 -58.8779 -110.502 -71.5127c-22.9111 -6.70215 -46.9307 -10.0986 -71.4004 -10.0986zM229.702 342.409c-20.4902 -12.6211 -42.0596 -29.168 -54.8252 -51.2373
c-21.208 -36.626 -15.4102 -90.6123 13.4795 -125.586c25.1191 -30.3877 65.6338 -48.5352 108.368 -48.5352c13.5547 0 26.8145 1.87402 39.4121 5.56934c21.2451 6.22363 39.7695 18.3242 55.252 36.0547c-53.96 52.0176 -107.08 112.385 -161.687 183.734z
M290.393 670.711c-10.6406 0 -21.0205 -1.72949 -30.8516 -5.14258c-19.4756 -6.76367 -35.3896 -19.1533 -42.5684 -33.1426c-8.85254 -17.2129 -8.01172 -42.9258 2.2373 -68.8027c9.7373 -24.5947 25.9365 -48.8467 43.1602 -71.8428
c48.8779 25.085 84.0762 48.2754 96.5283 89.7275c7.1709 23.9131 2.19531 51.0273 -12.3828 67.459c-11.8994 13.4131 -33.4033 21.7441 -56.123 21.7441z" />
    <glyph glyph-name="quotesingle" unicode="'" horiz-adv-x="177" 
d="M94.4229 497.035c-8.12109 0 -16.0566 1.59082 -23.5879 4.72656c-15.1201 6.27637 -26.916 18.1045 -33.1865 33.2959c-6.26855 15.1875 -6.25488 31.8926 0.0419922 47.0391l69.8799 168.169c9.55762 23.0098 31.8359 37.877 56.7549 37.877
c8.12207 0 16.0576 -1.59082 23.5879 -4.72754c15.1309 -6.27832 26.9326 -18.1045 33.2031 -33.2871c6.26465 -15.1689 6.24414 -31.8701 -0.0615234 -47.0244l-69.8691 -168.19c-9.55762 -23.0088 -31.8389 -37.8779 -56.7627 -37.8779z" />
    <glyph glyph-name="parenleft" unicode="(" horiz-adv-x="416" 
d="M210.378 -82.6973c-27.876 0 -50.5811 13.6973 -63.9336 38.5703l-0.234375 0.43457l-0.220703 0.444336c-67.6592 136.053 -101.966 292.89 -101.966 466.158c0 164.222 34.4199 312.701 102.309 441.328c12.6543 24.3086 35.0205 37.6963 62.9932 37.6963
c19.0576 0 35.7754 -7.04297 49.6914 -20.9326c13.915 -13.916 20.96 -30.6357 20.96 -49.7188c0 -7.48242 -1.73828 -15.792 -5.47168 -26.1533l-0.341797 -0.951172l-0.402344 -0.926758c-49.502 -114.058 -74.6016 -242.023 -74.6016 -380.341
c0 -148.959 25.5635 -286.142 75.9795 -407.736c3.25391 -7.66504 4.83789 -16.5723 4.83789 -27.2197c0 -19.7764 -6.8584 -36.6738 -20.3857 -50.2266c-13.5918 -13.5664 -30.1348 -20.4258 -49.2129 -20.4258z" />
    <glyph glyph-name="parenright" unicode=")" horiz-adv-x="447" 
d="M233.622 -82.6973c-19.0762 0 -35.6201 6.85938 -49.1719 20.3857c-13.5684 13.5938 -20.4268 30.4922 -20.4268 50.2666c0 10.6709 1.56641 19.54 4.79004 27.0977c50.4482 121.742 76.0264 258.961 76.0264 407.857c0 138.302 -25.1826 266.488 -74.8496 380.997
l-0.388672 0.895508l-0.332031 0.916992c-3.48047 9.60449 -5.24609 18.2051 -5.24609 25.5625c0 19.0674 7.03711 35.7871 20.9199 49.6924c13.9453 13.9199 30.6641 20.959 49.7305 20.959c27.916 0 50.2695 -13.3604 62.9561 -37.625
c67.915 -128.684 102.347 -277.187 102.347 -441.398c0 -173.253 -34.3545 -330.202 -102.108 -466.486l-0.243164 -0.487305l-0.258789 -0.479492c-13.3066 -24.6045 -35.9434 -38.1543 -63.7441 -38.1543z" />
    <glyph glyph-name="plus" unicode="+" horiz-adv-x="526" 
d="M257.547 86.876c-18.3428 0 -34.0137 7.14551 -46.5791 21.2393c-12.1992 13.6299 -18.1436 29.2949 -18.1436 47.8555v84.9688h-84.9834c-18.416 0 -34.4307 6.20117 -47.5977 18.4336c-13.5254 12.5146 -20.3994 28.1025 -20.3994 46.3027
c0 18.0762 6.79492 33.7744 20.1973 46.6582c13.2119 12.7119 29.2969 19.1611 47.8008 19.1611h84.9834v84.9678c0 18.665 6.01074 34.2236 18.376 47.5684c12.5137 13.5547 28.1182 20.4434 46.3457 20.4434c18.0195 0 33.7051 -6.78223 46.6221 -20.1592
c12.7529 -13.2822 19.1973 -29.3662 19.1973 -47.8535v-84.9678h84.9678c18.626 0 34.3662 -6.19531 48.1182 -18.9414c13.9365 -12.9512 20.9922 -28.7158 20.9922 -46.8789c0 -18.3018 -7.14062 -33.9639 -21.2227 -46.5498
c-13.665 -12.2344 -29.334 -18.1875 -47.8877 -18.1875h-84.9678v-84.9678c0 -18.6338 -6.18945 -34.373 -18.9229 -48.1162c-12.9424 -13.9277 -28.7129 -20.9766 -46.8965 -20.9766z" />
    <glyph glyph-name="comma" unicode="," horiz-adv-x="209" 
d="M35.0605 -196.108c-8.10254 0 -16.0332 1.58887 -23.5684 4.72363c-31.2832 13.0117 -46.1533 49.0518 -33.1504 80.3389l69.8799 168.169c9.54785 23.0059 31.8359 37.877 56.7783 37.877c8.0918 0 16.0088 -1.57812 23.5293 -4.69141
c15.1699 -6.29883 26.9629 -18.1279 33.2314 -33.3174c6.2666 -15.1865 6.25195 -31.8916 -0.0429688 -47.0361l-69.8789 -168.185c-9.55957 -23.0098 -31.8467 -37.8789 -56.7783 -37.8789z" />
    <glyph glyph-name="period" unicode="." horiz-adv-x="244" 
d="M117.622 0.0185547c-21.252 0 -39.6836 7.60352 -54.7832 22.5986c-15.1406 15.0156 -22.8252 33.3633 -22.8252 54.5205c0 21.2393 7.73047 39.4756 22.9775 54.2012c15.1074 14.5654 33.4834 21.9414 54.6318 21.9414c20.6865 0 38.6787 -7.65332 53.4775 -22.7471
c14.7158 -15.0195 22.1748 -32.9824 22.1748 -53.3945c0 -21.0713 -7.46191 -39.3623 -22.1797 -54.3613c-14.8037 -15.1006 -32.7969 -22.7588 -53.4736 -22.7588z" />
    <glyph glyph-name="slash" unicode="/" horiz-adv-x="468" 
d="M103.259 0.0185547c-23.085 0 -42.0264 10.335 -54.7783 29.8887l-0.197266 0.302734l-0.188477 0.308594c-14.709 24.1455 -11.3877 45.1143 -5.9502 58.5244l254.657 656.264c4.44336 12.248 12.4941 22.5459 23.9355 30.6104
c11.543 8.11816 24.1035 12.2266 37.3555 12.2266c23.0459 0 41.8271 -10.0127 54.3105 -28.9551c12.2334 -18.5742 14.6416 -39.1924 6.96875 -59.6309l-254.828 -656.706c-4.4668 -12.2656 -12.5166 -22.5605 -23.9297 -30.6055
c-11.5508 -8.12012 -24.1113 -12.2275 -37.3555 -12.2275z" />
    <glyph glyph-name="semicolon" unicode=";" horiz-adv-x="232" 
d="M115.355 338.619c-21.2578 0 -39.6914 7.60254 -54.791 22.5986c-15.1367 15.0098 -22.8174 33.3574 -22.8174 54.5205c0 21.2285 7.72852 39.4629 22.9707 54.1943c15.1133 14.5693 33.4893 21.9463 54.6387 21.9463c20.6719 0 38.6631 -7.64844 53.4736 -22.7363
c14.7197 -15.0127 22.1777 -32.9775 22.1777 -53.4043c0 -21.0869 -7.46094 -39.3799 -22.1777 -54.3691c-14.7969 -15.0918 -32.793 -22.75 -53.4746 -22.75zM59.6289 -176.778c-8.10254 0 -16.0332 1.58887 -23.5684 4.72363
c-31.2832 13.0117 -46.1533 49.0518 -33.1504 80.3389l69.8799 168.169c9.54785 23.0059 31.8359 37.877 56.7783 37.877c8.0918 0 16.0088 -1.57812 23.5293 -4.69141c15.1699 -6.29883 26.9629 -18.1279 33.2314 -33.3174
c6.2666 -15.1865 6.25195 -31.8916 -0.0429688 -47.0361l-69.8789 -168.185c-9.55957 -23.0098 -31.8467 -37.8789 -56.7783 -37.8789z" />
    <glyph glyph-name="equal" unicode="=" horiz-adv-x="516" 
d="M101.842 156.92c-15.9648 0 -29.8262 5.35645 -41.1982 15.918c-11.5303 10.6699 -17.3945 23.9414 -17.3945 39.4141c0 15.418 5.82422 28.834 17.3086 39.877c11.4033 10.9717 25.2949 16.5371 41.2832 16.5371h300.492c15.9287 0 29.9668 -5.52344 41.7246 -16.418
c11.9453 -11.125 17.9805 -24.5684 17.9805 -39.9961c0 -15.5088 -6.08398 -28.8115 -18.083 -39.5391c-11.7051 -10.4766 -25.7129 -15.7939 -41.6221 -15.7939h-300.491v0.000976563zM101.842 342.684c-15.9639 0 -29.8252 5.35645 -41.1973 15.918
c-11.5312 10.6719 -17.3955 23.9424 -17.3955 39.4141c0 15.4189 5.82422 28.8359 17.3105 39.8779c11.4004 10.9707 25.292 16.5371 41.2822 16.5371h300.492c15.9199 0 29.959 -5.52832 41.7256 -16.4336c11.9395 -11.0938 17.9795 -24.5381 17.9795 -39.9805
c0 -15.5098 -6.08496 -28.8115 -18.084 -39.5391c-11.7051 -10.4766 -25.7119 -15.7939 -41.6211 -15.7939h-300.492z" />
    <glyph glyph-name="question" unicode="?" horiz-adv-x="594" 
d="M305.736 0.0185547c-21.9199 0 -40.9199 7.89746 -56.4746 23.4707c-15.5508 15.5322 -23.4463 34.5303 -23.4463 56.4512c0 22.2764 7.71582 40.6104 23.5879 56.0508c15.5508 15.125 34.5039 22.7939 56.333 22.7939c21.5303 0 39.5049 -7.70801 54.9473 -23.5625
c15.1465 -15.5713 22.8203 -34.168 22.8203 -55.2822c0 -21.8486 -7.67676 -40.8096 -22.8184 -56.3564c-15.4219 -15.8555 -33.3984 -23.5654 -54.9492 -23.5654zM306.813 204.907c-20.6279 0 -37.915 7.26562 -51.3838 21.5947
c-13.4238 14.2705 -19.9541 30.543 -19.9541 49.7422c0 29.0889 6.61719 56.2998 19.667 80.8789c12.7539 24.0195 28.5918 44.8027 47.0752 61.7715c17.0469 15.6523 34.6494 31.2588 52.3174 46.3867c16.2266 13.8506 30.249 29.749 41.7041 47.2773
c10.7725 16.4736 16.2324 33.6875 16.2324 51.1729c0 27.4736 -10.1572 50.5156 -31.0527 70.4424c-20.7617 19.8076 -48.3936 29.8486 -82.1279 29.8486c-36.9023 0 -65.9219 -11.5996 -86.252 -34.4766c-20.6504 -23.2178 -30.7871 -54.3135 -30.1338 -92.4316
l0.00292969 -0.402344c0 -20.1152 -6.31055 -37.2705 -18.7549 -50.9922c-12.7402 -14.0732 -30.0742 -21.2178 -51.5059 -21.2178c-21.4424 0 -38.7725 7.13477 -51.5088 21.208c-12.6221 13.916 -18.7656 30.6719 -18.7656 51.2051
c0 75.5781 25.9326 136.782 77.0703 181.906c50.0146 44.792 110.524 67.5039 179.848 67.5039c69.1875 0 128.558 -20.8477 176.465 -61.9629c24.3965 -21.0479 43.0244 -45.6338 55.4121 -73.1123c12.3477 -27.3906 18.6094 -57.9189 18.6094 -90.7363
c0 -58.5078 -21.9805 -107.463 -65.3291 -145.505l-0.239258 -0.207031c-5.07031 -4.33105 -15.0508 -12.4951 -29.665 -24.2646c-17.7754 -14.293 -26.6191 -22.1279 -30.9121 -26.1865c-6.07129 -5.71875 -13.6787 -14.0186 -22.6436 -24.6992
c-8.27832 -9.90527 -14.2197 -19.9746 -17.627 -29.8887c-3.46289 -10.0371 -5.21289 -21.3057 -5.21289 -33.5195c0 -19.1592 -6.53223 -35.4346 -19.9707 -49.7559c-13.5117 -14.332 -30.7803 -21.5801 -51.3643 -21.5801z" />
    <glyph glyph-name="at" unicode="@" horiz-adv-x="881" 
d="M440.863 -89c-106.156 0 -199.304 37.1055 -276.854 110.285l-0.164062 0.15625c-76.9619 74.04 -115.984 168.023 -115.984 279.344c0 112.729 40.123 208.531 119.253 284.744l0.162109 0.15332c79.6543 75.2744 171.342 113.442 272.516 113.442
c102.594 0 193.575 -37.8262 270.42 -112.428c77.7764 -73.4336 117.218 -167.475 117.218 -279.503c0 -66.0762 -16.0527 -119.087 -47.7148 -157.561c-32.3105 -39.1719 -74.3711 -59.0215 -125.029 -59.0215c-50.4922 0 -86.2656 21.415 -106.676 63.751
c-10.8506 -16.416 -24.7949 -30.1289 -41.6709 -40.9492c-24.7461 -15.8438 -53.249 -23.875 -84.7305 -23.875c-49.4961 0 -93.7754 18.8232 -131.607 55.9482l-0.142578 0.140625c-37.8438 37.7773 -57.0322 90.6963 -57.0322 157.288
c0 63.7705 19.5977 114.583 58.2539 151.037c37.9395 37.1143 80.7744 55.9297 127.324 55.9297c28.6953 0 54.5605 -7.53125 76.877 -22.3848c8.21191 -5.47363 15.3428 -11.3398 21.3789 -17.5732c2.39453 6.57812 6.39355 12.6045 11.8906 17.8389
c9.50684 9.0127 21.3564 13.5635 35.2559 13.5635c15.4189 0 28.4248 -5.16211 38.6553 -15.3428l0.0830078 -0.0830078c10.1807 -10.2324 15.3428 -23.2324 15.3428 -38.6406v-178.554c0 -23.1191 4.32227 -40.4053 12.1699 -48.6738
c1.48145 -1.56055 5.98828 -6.30957 16.0732 -6.30957c5.24707 0 21.2148 0 33.3096 24.1758c9.41309 18.8525 14.1914 43.9727 14.1914 74.6455c0 82.2998 -24.5938 147.254 -73.0977 193.059l-0.115234 0.108398c-47.249 45.2246 -108.021 68.1553 -180.626 68.1553
c-69.666 0 -130.753 -25.7568 -181.566 -76.5557l-0.106445 -0.107422c-50.7256 -50.0605 -76.4443 -116.146 -76.4443 -196.419c0 -76.085 25.3994 -140.048 75.4902 -190.114c49.3633 -49.3887 109.003 -74.4268 177.275 -74.4268
c45.7529 0 85.9062 11.1865 119.347 33.25l0.677734 0.447266l0.707031 0.399414c11.2812 6.37207 24.9873 9.74023 39.6367 9.74023c18.293 0 33.4697 -5.88672 45.1045 -17.499l0.0830078 -0.0830078c11.5791 -11.6719 17.4502 -26.8262 17.4502 -45.04
c0 -22.5391 -10.4199 -41.2617 -30.1318 -54.1475c-52.4541 -34.7119 -115.184 -52.3115 -186.451 -52.3115zM425.883 387.844c-21.2744 0 -38.0908 -7.80273 -51.4102 -23.8535c-13.7188 -16.5107 -20.6699 -37.4111 -20.6699 -62.1328
c0 -25.5176 7.00098 -47.1963 20.8105 -64.4346c13.3145 -16.6787 30.0781 -24.7715 51.2695 -24.7715c21.1689 0 37.9434 8.09961 51.2773 24.7627c13.8096 17.2852 20.8164 38.9717 20.8164 64.4424c0 24.6758 -6.95801 45.585 -20.6797 62.1445
c-13.335 16.0332 -30.1611 23.8428 -51.4141 23.8428z" />
    <glyph glyph-name="underscore" unicode="_" horiz-adv-x="676" 
d="M103.714 0.0185547c-16.8398 0 -31.2383 6.79199 -42.7969 20.1865c-10.6455 12.4209 -15.7959 26.9277 -15.7959 44.4082c0 17.4434 5.12988 32.1357 15.6826 44.9141c11.5312 13.9316 25.9619 20.9854 42.9102 20.9854h457.853
c16.9473 0 31.3789 -7.05469 42.8936 -20.9668c10.5723 -12.7871 15.707 -27.4814 15.707 -44.9336c0 -17.4971 -5.16797 -32.0137 -15.7998 -44.377c-11.5537 -13.418 -25.9512 -20.2178 -42.8008 -20.2178h-457.853v0.000976562z" />
    <glyph glyph-name="zero" unicode="0" horiz-adv-x="724" 
d="M360.863 0.00390625c-83.3301 0 -156.751 34.5576 -218.223 102.715l-0.0986328 0.111328c-59.6602 66.9932 -89.9111 160.631 -89.9111 278.312v25.7227c0 117.652 30.2627 211.312 89.9492 278.38l0.109375 0.12207c61.4678 68.1045 134.871 102.637 218.174 102.637
c84.7461 0 158.187 -34.5762 218.276 -102.759c59.6914 -67.1211 89.9541 -160.78 89.9541 -278.38v-25.7227c0 -117.631 -30.251 -211.277 -89.916 -278.343c-60.1172 -68.2109 -133.568 -102.796 -218.314 -102.796zM236.292 194.634
c30.0908 -48.7051 70.8389 -72.3789 124.57 -72.3789c54.4053 0 94.7588 23.6094 123.362 72.1768l0.24707 0.40918c30.7148 49.8086 46.2891 112.49 46.2891 186.302v25.7227c0 72.4229 -15.6279 134.831 -46.4492 185.493l-0.12207 0.203125
c-29.2832 49.25 -69.623 73.1914 -123.326 73.1914c-53.7314 0 -94.4434 -23.9736 -124.464 -73.2959c-30.1582 -50.75 -45.4492 -113.191 -45.4492 -185.592v-25.7227c-0.000976562 -73.0684 15.2568 -135.82 45.3418 -186.509z" />
    <glyph glyph-name="nine" unicode="9" horiz-adv-x="640" 
d="M235.999 0.00390625c-17.667 0 -32.5127 6.12402 -44.126 18.2021c-11.4902 11.9434 -17.3193 26.8486 -17.3193 44.2979c0 14.127 4.46094 27.0781 13.2598 38.4941l141.484 184.872c-3.53223 -0.135742 -7.27051 -0.203125 -11.2246 -0.203125
c-66.8652 0 -127.419 24.4082 -179.982 72.5449l-0.243164 0.224609c-52.0234 49.0088 -78.4023 109.75 -78.4023 180.538c0 70.8174 26.0977 130.562 77.5693 177.574c51.873 47.4121 112.791 71.4541 181.059 71.4541c68.2627 0 129.529 -24.7588 182.105 -73.5938
c52.1963 -47.7812 78.6621 -110.396 78.6621 -186.104c0 -51.0371 -12.4092 -97.6289 -36.8789 -138.476l-32.1709 -54.667l-0.204102 -0.323242c-8.52637 -13.4668 -24.417 -35.502 -47.2314 -65.4941l-45.7314 -61.665l-129.965 -181.073
c-12.4082 -17.6523 -29.4521 -26.6025 -50.6602 -26.6025zM228.451 450.014c25.3369 -23.2783 55.8477 -35.083 90.6914 -35.083c39.0625 0 70.5635 11.5361 93.6289 34.2871c23.0049 22.6689 34.665 52.8643 34.665 89.7559c0 35.7715 -12.6455 64.874 -38.6582 88.9736
l-0.207031 0.193359c-25.8594 24.543 -55.9473 36.9883 -89.4287 36.9883c-34.1045 0 -64.5127 -12.4102 -90.3877 -36.8896c-24.4512 -24.5557 -36.8496 -54.5869 -36.8496 -89.2656c0 -34.6494 12.2949 -64.5771 36.5459 -88.96z" />
    <glyph glyph-name="eight" unicode="8" horiz-adv-x="652" 
d="M328.678 0.00390625c-70.9375 0 -133.542 22.8838 -186.072 68.0156c-26.7344 23.0195 -47.1602 50.0879 -60.7314 80.4727c-13.5029 30.2324 -20.3496 64.0625 -20.3496 100.551c0 43.9893 10.6338 84.1377 31.6045 119.334
c18.1387 30.4727 42.2568 55.915 71.8223 75.7969c-37.5273 39.6221 -56.5293 85.7803 -56.5293 137.426c0 57.1602 20.2314 106.374 60.1309 146.274c39.8818 39.8994 93.7568 60.1309 160.124 60.1309c66.2617 0 120.082 -20.1797 159.966 -59.9727
c40.7148 -39.2578 61.3594 -88.5244 61.3594 -146.433c0 -52.8828 -19.252 -99.1123 -57.2705 -137.642c29.3887 -19.8262 53.3906 -45.1855 71.5068 -75.5781c20.9658 -35.2109 31.5928 -75.3584 31.5928 -119.337c0 -36.4932 -6.8457 -70.3271 -20.3477 -100.561
c-13.5684 -30.3848 -33.9912 -57.4492 -60.7002 -80.4453c-52.5654 -45.1504 -115.173 -68.0332 -186.105 -68.0332zM328.678 375.208c-34.2715 0 -64.4268 -11.8057 -89.626 -35.0898c-24.9512 -23.0244 -37.5947 -53.6621 -37.5947 -91.0762
c0 -36.792 12.6836 -67.4736 37.7021 -91.1973l0.21875 -0.209961c24.4229 -23.7646 54.4688 -35.8135 89.3008 -35.8135c35.4893 0 65.5303 12.0469 89.29 35.8066l0.224609 0.223633l0.229492 0.21875c25.2188 23.8955 37.4785 53.6523 37.4785 90.9727
c0 37.4248 -12.6445 68.0625 -37.5791 91.0605c-25.2168 23.2988 -55.3711 35.1045 -89.6445 35.1045zM328.678 666.186c-25.9502 0 -46.7861 -8.22168 -63.7012 -25.1367c-16.9248 -16.9238 -25.1514 -36.7207 -25.1514 -60.5195
c0 -24.498 8.22852 -44.6416 25.1572 -61.5811c16.9082 -16.9092 37.7451 -25.1309 63.6943 -25.1309c25.9707 0 46.8105 8.2207 63.71 25.1309c16.9189 16.9297 25.1436 37.0732 25.1436 61.5811c0 23.8203 -8.22168 43.6143 -25.1318 60.5137
c-16.9102 16.9219 -37.749 25.1426 -63.7207 25.1426z" />
    <glyph glyph-name="seven" unicode="7" horiz-adv-x="625" 
d="M192.303 0.00390625c-18.5146 0 -34.3887 6.71191 -47.1797 19.9482c-12.6885 13.1006 -19.1299 29.0713 -19.1299 47.4473c0 8.14258 2.14648 17.3809 6.38281 27.459l0.255859 0.608398l278.002 569.626h-291.864c-17.0059 0 -31.7432 6.12695 -43.8037 18.2109
c-12.0566 12.0107 -18.1934 26.7598 -18.1934 43.7881c0 17.0752 6.17285 31.6797 18.3467 43.4072c12.0762 11.6191 26.7588 17.5049 43.6504 17.5049h350.397c34.4707 0 60.0762 -13.0947 76.1143 -38.9268c17.6152 -26.2803 19.0059 -55.0918 4.13379 -85.6543
l-297.354 -623.948c-15.2959 -32.6211 -40.9355 -39.4707 -59.7588 -39.4707z" />
    <glyph glyph-name="six" unicode="6" horiz-adv-x="646" 
d="M326.733 -0.00390625c-68.291 0 -129.562 24.4082 -182.11 72.5469l-0.246094 0.229492c-52.0205 49.0361 -78.3984 111.927 -78.3984 186.923c0 48.8271 11.9922 95.3154 35.6436 138.178l0.21582 0.391602l0.230469 0.383789
c10.166 16.8711 21.2363 35.0615 32.9062 54.0654l0.15332 0.246094c8.64355 13.6934 24.5684 35.79 47.3359 65.6807l45.7324 61.667l129.966 181.072c12.2432 17.4131 29.7529 26.6162 50.6455 26.6162c17.6309 0 32.4658 -6.1084 44.0947 -18.1553
c11.5264 -12.0029 17.3506 -26.9092 17.3506 -44.3438c0 -14.2988 -4.32422 -26.8799 -13.2207 -38.4629l-141.514 -184.904c3.53027 0.135742 7.26562 0.203125 11.2148 0.203125c66.8467 0 127.407 -24.7627 179.999 -73.5967
c52.1855 -47.7695 78.6445 -108.232 78.6445 -179.712c0 -70.8076 -26.46 -130.904 -78.6455 -178.621c-51.1582 -46.7217 -111.716 -70.4072 -179.998 -70.4072zM234.982 158.995c25.9619 -23.9697 56.4766 -36.125 90.6953 -36.125
c35.4883 0 65.5303 12.0469 89.291 35.8066l0.226562 0.226562l0.231445 0.21875c25.2158 23.8818 37.4756 53.29 37.4756 89.9023c0 35.7979 -12.29 64.5469 -37.5752 87.8906l-0.341797 0.31543l-0.330078 0.328125c-23.9062 23.8945 -53.0117 35.5088 -88.9785 35.5088
c-39.0469 0 -70.5459 -11.5293 -93.6221 -34.2676c-23.0029 -22.6904 -34.6719 -52.8984 -34.6719 -89.7764c0.000976562 -36.54 12.2979 -65.9883 37.5996 -90.0283z" />
    <glyph glyph-name="five" unicode="5" horiz-adv-x="658" 
d="M312.866 0.00390625c-47.8252 0 -91.458 9.10645 -129.688 27.0645c-38.498 18.084 -71.9434 45.3252 -99.4111 80.9688l-0.321289 0.417969l-0.303711 0.431641c-11.2656 16.0625 -16.9785 31.3193 -16.9785 45.3486c0 17.6484 6.09961 32.6953 18.1289 44.7256
c12.0176 12.0195 27.4229 18.1133 45.7881 18.1133c22.6416 0 40.7891 -8.88965 53.9365 -26.4209l0.682617 -0.910156l0.59082 -0.970703c11.9277 -19.5957 29.4902 -35.6992 52.1992 -47.8672c22.8105 -12.2432 47.8027 -18.4463 74.2959 -18.4463
c39.0146 0 73.5225 13.0654 102.565 38.832l0.208008 0.180664c29.2295 25.3271 44.0508 62.3213 44.0508 109.953c0 44.3545 -13.9492 80.458 -41.459 107.31c-26.8789 26.2178 -59.7988 39.5137 -97.8398 39.5137c-35.6895 0 -71.4668 -13.9434 -106.337 -41.4424
l-1.06934 -0.84375l-1.16113 -0.713867c-12.751 -7.85059 -30.4844 -11.832 -52.7061 -11.832c-25.2881 0 -45.8574 9.47852 -61.1348 28.1729c-14.9668 18.2627 -21.3193 40.4619 -18.8623 65.9561l0.0332031 0.336914l33.3828 265.822
c2.54004 18.623 10.5664 34.1299 23.8574 46.0889c13.3613 12.0723 30.0615 18.21 49.6006 18.21h280.623c16.8311 0 31.46 -5.86523 43.4814 -17.4316c12.1367 -11.667 18.292 -26.2256 18.292 -43.2637c0 -16.9316 -6.09863 -31.6152 -18.1289 -43.6455
c-12 -12.0244 -26.6895 -18.1289 -43.6455 -18.1289h-232.061l-18.2637 -153.939c35.5273 19.3311 77.291 29.1094 124.53 29.1094c70.4414 0 131.61 -25.4512 181.806 -75.6455c50.1934 -50.1768 75.6455 -115.324 75.6455 -193.633
c0 -77.6836 -27.7041 -143.273 -82.3418 -194.949l-0.129883 -0.120117c-54.3809 -50.6631 -122.296 -76.3516 -201.855 -76.3516z" />
    <glyph glyph-name="four" unicode="4" horiz-adv-x="667" 
d="M447.514 0.00390625c-19.1328 0 -35.6924 6.83789 -49.2217 20.3232c-13.5293 13.5293 -20.376 30.0986 -20.376 49.2744v125.258h-229.183c-40.9521 0 -68.667 14.292 -82.3799 42.4785c-13.6201 27.3369 -9.31641 57.0273 12.7979 88.252l294.556 422.315
c18.835 26.6074 41.5537 40.0986 67.5234 40.0986c6.8916 0 14.0586 -0.986328 21.3047 -2.93164c35.2061 -9.24414 54.5908 -35.7373 54.5908 -74.6104v-395.877h25.6504c16.915 0 31.6064 -5.89453 43.6689 -17.5215c12.1807 -11.7129 18.3682 -25.9658 18.3682 -42.3428
c0 -17.1885 -6.2334 -31.6797 -18.5283 -43.0713c-12.0312 -11.1436 -26.668 -16.791 -43.5078 -16.791h-25.6504v-125.259c0 -19.1562 -6.85547 -35.7246 -20.3789 -49.248c-13.7197 -13.6953 -29.8213 -20.3477 -49.2344 -20.3477zM377.916 314.586v236.183
l-161.605 -236.183h161.605z" />
    <glyph glyph-name="three" unicode="3" horiz-adv-x="661" 
d="M325.815 0.00390625c-62.418 0 -117.708 15.6953 -164.332 46.6523c-46.9941 31.2012 -79.5723 75.1768 -96.8291 130.71c-6.8584 21.458 -4.62891 41.54 6.62598 59.6924c11.5156 18.5801 29.6357 28.4023 52.3975 28.4023c14.7227 0 28.1465 -4.20312 39.9004 -12.4922
c11.9102 -8.37109 19.8223 -18.6953 23.4854 -30.6631l0.0898438 -0.302734c9.11426 -31.2842 26.7803 -55.8828 52.5059 -73.1152c26.1104 -17.543 55.0889 -26.4287 86.1553 -26.4287c34.4375 0 66.7207 10.7832 95.9512 32.0479l0.25 0.181641l0.253906 0.174805
c28.8193 19.8291 42.8271 50.2188 42.8271 92.9092c0 40.4307 -14.4033 69.8037 -44.0361 89.7988l-0.355469 0.245117c-31.9033 22.3916 -67.8037 37.2129 -106.705 44.0518l-0.53125 0.09375l-0.525391 0.117188c-15.0283 3.35938 -27.8555 10.7139 -38.123 21.8623
c-10.7139 11.5898 -16.1621 24.8975 -16.1621 39.5205c0 14.5605 9.30469 33.2871 29.2822 58.9219l119.983 163.149h-260.592c-16.9316 0 -31.6162 6.09863 -43.6465 18.1289c-12.0293 12.0303 -18.1289 26.7139 -18.1289 43.6455
c0 17.0146 6.15137 31.5664 18.2822 43.2529c12.0332 11.5771 26.6631 17.4434 43.4932 17.4434h319.327c38.7764 0 67.2285 -14.9482 84.5762 -44.4297c9.69043 -15.3418 13.9199 -31.2246 12.5713 -47.2158c-1.31738 -15.6436 -7.74023 -30.8184 -19.6377 -46.3926
l-132.285 -171.802c47.9727 -12.3926 90.1963 -36.6123 125.766 -72.1699c43.1064 -42.3955 64.9678 -95.6299 64.9678 -158.223c0 -35.749 -6.82324 -69.0645 -20.2793 -99.0186c-13.4863 -30.0254 -33.7725 -56.9834 -60.2939 -80.1299
c-52.207 -45.5332 -118.226 -68.6191 -196.229 -68.6191z" />
    <glyph glyph-name="two" unicode="2" horiz-adv-x="661" 
d="M171.985 0.00390625c-45.3164 0 -77.0312 18.7344 -94.2617 55.6816l-0.0722656 0.15918c-17.376 37.9951 -9.66211 73.8125 22.9258 106.453l140.572 143.811l53.3447 53.3438l0.543945 0.480469c5.69531 5.03223 11.7031 10.6973 17.8584 16.8359
c6.11523 6.11719 11.8291 12.0137 16.9639 17.5039c7.00977 7.47949 9.31836 9.8584 10.3926 10.9385l35.6152 36.6787c17.2471 17.9492 33.0498 38.6816 46.9736 61.624l0.0761719 0.124023c10.2217 16.6133 15.4062 35.1309 15.4062 55.04
c0 31.8369 -10.7754 56.5127 -32.9424 75.4365c-22.4561 19.2061 -49.751 28.9365 -81.1416 28.9365c-28.7129 0 -53.9619 -8.38184 -75.0439 -24.9141c-21.0283 -16.502 -35.3555 -40.8857 -42.5742 -72.4678l-0.09375 -0.411133l-0.109375 -0.408203
c-4.2627 -15.9844 -12.9092 -29.2754 -25.6982 -39.502c-13.0059 -10.3789 -28.293 -15.6348 -45.4541 -15.6348c-23.6924 0 -42.2842 10.3037 -53.7676 29.7979c-11.0312 18.6592 -13.2939 40.6719 -6.70996 65.3936c13.6348 53.6025 42.5186 97.9775 85.8545 131.904
c43.4004 33.9707 96.6289 51.1943 158.207 51.1943c74.1113 0 136.133 -23.2646 184.349 -69.1553c49.1875 -45.4688 74.125 -100.81 74.125 -164.491c0 -15.7725 -2.93457 -34.9326 -8.72168 -56.9678c-1.49707 -9.03027 -5.33301 -18.7129 -12.2949 -31.0967
l-0.150391 -0.262695c-16.3408 -28.2119 -27.6426 -46.0215 -34.5469 -54.4453l-0.267578 -0.320312c-24.3848 -28.6885 -41.2676 -47.7617 -50.1797 -56.6895c-14.9346 -14.9482 -24.5381 -24.8994 -28.5498 -29.5801l-0.714844 -0.834961l-35.5664 -34.4033
l-36.6396 -36.6543l-125.224 -127.076h275.232c16.9072 0 31.7637 -6.06836 44.1582 -18.0361c12.5029 -12.043 18.8525 -27.1826 18.8525 -44.9746c0 -17.7881 -6.34375 -32.9307 -18.8545 -45.0078c-12.458 -11.96 -27.2988 -18.0029 -44.1553 -18.0029h-347.717z" />
    <glyph glyph-name="one" unicode="1" horiz-adv-x="395" 
d="M241.509 0c-19.1719 0 -35.7471 6.85352 -49.2637 20.3711c-13.5068 13.5078 -20.3555 30.082 -20.3555 49.2627v595.347h-59.2676c-17.0078 0 -31.7578 6.12695 -43.8428 18.2109c-12.0742 12.0732 -18.1963 26.8242 -18.1963 43.8428
c0 17.0996 6.17285 31.7168 18.3477 43.4443c12.1455 11.6406 26.8301 17.5215 43.6914 17.5215h121.306c21.9453 0 40.4746 -7.17871 55.0732 -21.3369c14.8955 -14.4238 22.1406 -32.3486 22.1406 -54.79v-642.24c0 -19.1621 -6.8584 -35.7354 -20.3848 -49.2627
c-13.5176 -13.5176 -30.0859 -20.3701 -49.248 -20.3701z" />
    <glyph glyph-name="backslash" unicode="\" horiz-adv-x="422" 
d="M74.4854 788c8.88086 0 17.3154 -2.80762 25.3164 -8.43457c8.00098 -5.63965 13.4844 -12.5801 16.4365 -20.8701l270.96 -698.278c5.33789 -13.0264 3.85547 -26.3525 -4.44629 -39.9814c-8.88086 -13.6152 -21.3164 -20.4355 -37.3057 -20.4355
c-8.89258 0 -17.3271 2.82031 -25.3164 8.43457c-8.00098 5.63965 -13.4717 12.6045 -16.4355 20.8828l-270.961 698.277c-5.33887 14.2188 -3.69922 27.834 4.87988 40.8604c8.59082 13.0381 20.8818 19.5449 36.8721 19.5449z" />
    <glyph glyph-name="colon" unicode=":" horiz-adv-x="248" 
d="M122.355 338.619c-21.2578 0 -39.6914 7.60254 -54.791 22.5986c-15.1367 15.0098 -22.8174 33.3574 -22.8174 54.5205c0 21.2285 7.72852 39.4629 22.9707 54.1943c15.1133 14.5693 33.4893 21.9463 54.6387 21.9463c20.6719 0 38.6631 -7.64844 53.4736 -22.7363
c14.7197 -15.0127 22.1777 -32.9775 22.1777 -53.4043c0 -21.0869 -7.46094 -39.3799 -22.1777 -54.3691c-14.7969 -15.0918 -32.793 -22.75 -53.4746 -22.75zM122.355 0c-21.2578 0 -39.6914 7.60254 -54.791 22.5986c-15.1367 15.0107 -22.8174 33.3574 -22.8174 54.5205
c0 21.2285 7.72852 39.4629 22.9707 54.1953c15.1133 14.5684 33.4893 21.9453 54.6387 21.9453c20.6719 0 38.6631 -7.64844 53.4736 -22.7354c14.7197 -15.0137 22.1777 -32.9785 22.1777 -53.4053c0 -21.0869 -7.46094 -39.3799 -22.1777 -54.3691
c-14.7969 -15.0918 -32.793 -22.75 -53.4746 -22.75z" />
  </font>
</defs>
</svg>
